{"glyphs":{" ":{"ha":347,"x_min":0,"x_max":0,"o":""},"က":{"ha":1500,"x_min":56,"x_max":1444,"o":"m 611 563 q 528 653 611 653 l 417 653 q 333 563 333 653 l 333 160 q 417 69 333 69 l 417 0 l 278 0 q 56 160 56 0 l 56 563 q 278 722 56 722 l 667 722 q 750 715 713 722 q 833 722 786 722 l 1222 722 q 1444 563 1444 722 l 1444 160 q 1222 0 1444 0 l 1083 0 l 1083 69 q 1167 160 1167 69 l 1167 563 q 1083 653 1167 653 l 972 653 q 889 563 889 653 l 889 160 q 667 0 889 0 l 528 0 l 528 69 q 611 160 611 69 l 611 563 z "},"ခ":{"ha":944,"x_min":56,"x_max":889,"o":"m 278 0 q 56 160 56 0 q 250 278 56 278 l 403 278 q 611 176 539 278 l 611 479 q 472 611 611 611 q 97 479 125 611 l 56 479 q 472 722 56 722 q 889 479 889 722 l 889 160 q 667 0 889 0 l 278 0 m 585 86 q 403 208 522 208 q 333 160 333 208 q 417 69 333 69 l 528 69 q 585 86 564 69 z "},"ဂ":{"ha":944,"x_min":56,"x_max":889,"o":"m 417 653 q 333 563 333 653 l 333 160 q 417 69 333 69 l 417 0 l 278 0 q 56 160 56 0 l 56 563 q 278 722 56 722 l 667 722 q 889 563 889 722 l 889 160 q 667 0 889 0 l 528 0 l 528 69 q 611 160 611 69 l 611 563 q 528 653 611 653 l 417 653 z "},"ဃ":{"ha":1500,"x_min":56,"x_max":1444,"o":"m 333 486 l 333 160 q 417 69 333 69 l 528 69 q 611 160 611 69 l 611 563 q 528 653 611 653 l 528 722 l 667 722 q 889 563 889 722 l 889 160 q 972 69 889 69 l 1083 69 q 1167 160 1167 69 l 1167 563 q 1083 653 1167 653 l 1083 722 l 1222 722 q 1444 563 1444 722 l 1444 160 q 1222 0 1444 0 l 833 0 q 750 7 786 0 q 667 0 713 0 l 278 0 q 56 160 56 0 l 56 486 q 293 653 56 578 l 56 653 l 56 722 l 431 722 l 431 653 q 333 486 333 556 z "},"င":{"ha":944,"x_min":56,"x_max":889,"o":"m 472 611 q 333 479 333 611 l 333 160 q 417 69 333 69 l 528 69 q 611 160 611 69 l 611 278 l 889 278 l 889 160 q 667 0 889 0 l 278 0 q 56 160 56 0 l 56 479 q 472 722 56 722 q 889 479 889 722 l 847 479 q 472 611 819 611 z "},"စ":{"ha":944,"x_min":56,"x_max":889,"o":"m 346 619 q 333 563 333 599 l 333 160 q 346 103 333 124 q 417 361 417 197 q 346 619 417 525 m 393 72 q 417 69 404 69 l 528 69 q 611 160 611 69 l 611 563 q 528 653 611 653 l 417 653 q 393 650 404 653 q 486 361 486 553 q 393 72 486 169 m 56 160 l 56 563 q 278 722 56 722 l 667 722 q 889 563 889 722 l 889 160 q 667 0 889 0 l 278 0 q 56 160 56 0 z "},"ဆ":{"ha":1500,"x_min":56,"x_max":1444,"o":"m 403 208 q 333 160 333 208 q 417 69 333 69 l 528 69 q 585 86 564 69 q 403 208 522 208 m 889 160 q 972 69 889 69 l 1083 69 q 1167 160 1167 69 l 1167 563 q 1083 653 1167 653 l 972 653 q 889 563 889 653 l 889 160 m 750 7 q 667 0 713 0 l 278 0 q 56 160 56 0 q 250 278 56 278 l 403 278 q 611 176 539 278 l 611 479 q 472 611 611 611 q 97 479 125 611 l 56 479 q 472 722 56 722 q 694 699 604 722 q 833 722 747 722 l 1222 722 q 1444 563 1444 722 l 1444 160 q 1222 0 1444 0 l 833 0 q 750 7 786 0 z "},"ဇ":{"ha":944,"x_min":56,"x_max":958,"o":"m 819 479 q 729 549 819 549 q 639 479 639 549 q 729 410 639 410 q 819 479 819 410 m 846 372 q 729 340 806 340 q 569 479 569 340 q 638 601 569 569 q 472 611 567 611 q 333 479 333 611 l 333 160 q 417 69 333 69 l 528 69 q 611 160 611 69 l 611 250 l 889 250 l 889 160 q 667 0 889 0 l 278 0 q 56 160 56 0 l 56 479 q 472 722 56 722 q 889 481 888 722 q 958 390 889 390 l 958 321 q 846 372 879 321 z "},"ဈ":{"ha":1333,"x_min":56,"x_max":1278,"o":"m 346 619 q 333 563 333 599 l 333 160 q 346 103 333 124 q 417 361 417 197 q 346 619 417 525 m 393 72 q 417 69 404 69 l 528 69 q 611 160 611 69 l 611 563 q 528 653 611 653 l 417 653 q 393 650 404 653 q 486 361 486 553 q 393 72 486 169 m 389 0 l 278 0 q 56 160 56 0 l 56 563 q 278 722 56 722 l 667 722 q 889 563 889 722 l 889 160 q 667 0 889 0 l 667 -354 q 750 -444 667 -444 l 917 -444 q 1000 -354 1000 -444 l 1000 722 l 1278 722 l 1278 -354 q 1056 -514 1278 -514 l 611 -514 q 389 -354 389 -514 l 389 0 z "},"ဉ":{"ha":944,"x_min":56,"x_max":1278,"o":"m 56 278 l 333 278 l 333 160 q 417 69 333 69 l 528 69 q 611 160 611 69 l 611 479 q 472 611 611 611 q 97 479 125 611 l 56 479 q 472 722 56 722 q 889 479 889 722 l 889 160 q 667 0 889 0 l 333 0 l 333 -354 q 417 -444 333 -444 l 917 -444 q 1000 -354 1000 -444 l 1000 -69 l 1278 -69 l 1278 -354 q 1056 -514 1278 -514 l 278 -514 q 56 -354 56 -514 l 56 278 z "},"ည":{"ha":1500,"x_min":56,"x_max":1444,"o":"m 1083 -444 q 1167 -354 1167 -444 l 1167 -69 l 1444 -69 l 1444 -354 q 1222 -514 1444 -514 l 278 -514 q 56 -354 56 -514 l 56 278 l 333 278 l 333 160 q 417 69 333 69 l 528 69 q 611 160 611 69 l 611 479 q 472 611 611 611 q 97 479 125 611 l 56 479 q 472 722 56 722 q 889 479 889 722 l 889 160 q 972 69 889 69 l 1083 69 q 1167 160 1167 69 l 1167 563 q 1083 653 1167 653 l 1083 722 l 1222 722 q 1444 563 1444 722 l 1444 160 q 1222 0 1444 0 l 833 0 q 750 7 788 0 q 667 0 714 0 l 333 0 l 333 -354 q 417 -444 333 -444 l 1083 -444 z "},"ဋ":{"ha":944,"x_min":56,"x_max":1000,"o":"m 889 63 q 528 -153 889 -153 l 333 -153 l 333 -236 l 528 -236 q 889 -133 772 -236 l 889 -347 q 944 -444 889 -444 l 1000 -444 l 1000 -514 l 764 -514 q 611 -347 611 -514 l 611 -306 l 417 -306 q 56 -232 136 -306 l 56 -28 q 417 -83 179 -83 l 528 -83 q 611 0 611 -83 l 278 0 q 56 160 56 0 l 56 479 q 472 722 56 722 q 889 479 889 722 l 847 479 q 472 611 819 611 q 333 479 333 611 l 333 160 q 417 69 333 69 l 528 69 q 611 160 611 69 l 611 278 l 889 278 l 889 63 z "},"ဌ":{"ha":944,"x_min":56,"x_max":889,"o":"m 889 -354 q 667 -514 889 -514 l 278 -514 q 56 -354 56 -514 l 56 -257 q 313 -56 56 -56 q 569 -243 569 -56 l 528 -243 q 417 -167 500 -167 q 333 -257 333 -167 l 333 -354 q 417 -444 333 -444 l 528 -444 q 611 -354 611 -444 l 611 0 l 278 0 q 56 160 56 0 l 56 479 q 472 722 56 722 q 889 479 889 722 l 847 479 q 472 611 819 611 q 333 479 333 611 l 333 160 q 417 69 333 69 l 528 69 q 611 160 611 69 l 611 278 l 889 278 l 889 -354 z "},"ဍ":{"ha":944,"x_min":56,"x_max":1000,"o":"m 611 -153 l 417 -153 q 56 63 56 -153 l 56 278 l 333 278 l 333 160 q 417 69 333 69 l 528 69 q 611 160 611 69 l 611 479 q 472 611 611 611 q 97 479 125 611 l 56 479 q 472 722 56 722 q 889 479 889 722 l 889 160 q 667 0 889 0 l 333 0 q 417 -83 333 -83 l 528 -83 q 889 -28 765 -83 l 889 -347 q 944 -444 889 -444 l 1000 -444 l 1000 -514 l 764 -514 q 611 -347 611 -514 l 611 -153 z "},"ဎ":{"ha":944,"x_min":56,"x_max":889,"o":"m 333 486 l 333 160 q 417 69 333 69 l 528 69 q 611 160 611 69 l 611 563 q 528 653 611 653 l 528 722 l 667 722 q 889 563 889 722 l 889 160 q 667 0 889 0 l 278 0 q 56 160 56 0 l 56 486 q 293 653 56 578 l 56 653 l 56 722 l 431 722 l 431 653 q 333 486 333 556 z "},"ဏ":{"ha":1500,"x_min":56,"x_max":1444,"o":"m 1014 129 q 891 23 965 46 q 750 0 817 0 q 609 23 683 0 q 486 129 535 46 l 486 563 q 410 653 486 653 q 333 563 333 653 l 333 160 q 417 69 333 69 l 417 0 l 278 0 q 56 160 56 0 l 56 563 q 278 722 56 722 l 542 722 q 646 699 606 722 q 750 722 685 722 q 854 699 815 722 q 958 722 894 722 l 1222 722 q 1444 563 1444 722 l 1444 160 q 1222 0 1444 0 l 1083 0 l 1083 69 q 1167 160 1167 69 l 1167 563 q 1090 653 1167 653 q 1014 563 1014 653 l 1014 129 m 701 103 q 750 69 717 69 q 799 103 783 69 q 792 160 792 129 l 792 563 q 806 642 792 610 q 750 653 783 653 q 694 642 717 653 q 708 563 708 610 l 708 160 q 701 103 708 129 z "},"တ":{"ha":1500,"x_min":56,"x_max":1444,"o":"m 611 563 q 528 653 611 653 l 417 653 q 333 563 333 653 l 333 160 q 417 69 333 69 l 528 69 q 611 160 611 69 l 611 563 m 750 715 q 833 722 788 722 l 1222 722 q 1444 563 1444 722 l 1444 160 q 1222 0 1444 0 l 1083 0 l 1083 69 q 1167 160 1167 69 l 1167 563 q 1083 653 1167 653 l 972 653 q 889 563 889 653 l 889 160 q 667 0 889 0 l 278 0 q 56 160 56 0 l 56 563 q 278 722 56 722 l 667 722 q 750 715 714 722 z "},"ထ":{"ha":1500,"x_min":56,"x_max":1444,"o":"m 611 160 l 611 563 q 528 653 611 653 l 417 653 q 333 563 333 653 l 333 160 q 417 69 333 69 l 528 69 q 611 160 611 69 m 889 160 q 972 69 889 69 l 1083 69 q 1167 160 1167 69 l 1167 563 q 1083 653 1167 653 l 972 653 q 889 563 889 653 l 889 160 m 750 715 q 833 722 788 722 l 1222 722 q 1444 563 1444 722 l 1444 160 q 1222 0 1444 0 l 833 0 q 750 7 788 0 q 667 0 714 0 l 278 0 q 56 160 56 0 l 56 563 q 278 722 56 722 l 667 722 q 750 715 714 722 z "},"ဒ":{"ha":944,"x_min":56,"x_max":889,"o":"m 472 611 q 97 479 125 611 l 56 479 q 472 722 56 722 q 889 472 889 722 q 783 361 889 401 q 889 222 889 321 l 889 160 q 667 0 889 0 l 278 0 q 56 160 56 0 l 56 278 l 333 278 l 333 160 q 417 69 333 69 l 528 69 q 611 160 611 69 l 611 222 q 528 326 611 326 l 417 326 l 417 396 l 528 396 q 611 472 611 396 q 472 611 611 611 z "},"ဓ":{"ha":944,"x_min":56,"x_max":889,"o":"m 611 286 l 611 563 q 528 653 611 653 l 417 653 q 333 563 333 653 l 333 286 q 472 319 390 319 q 611 286 554 319 m 333 217 l 333 160 q 417 69 333 69 l 528 69 q 611 160 611 69 l 611 217 q 472 250 554 250 q 333 217 390 250 m 56 160 l 56 563 q 278 722 56 722 l 667 722 q 889 563 889 722 l 889 160 q 667 0 889 0 l 278 0 q 56 160 56 0 z "},"န":{"ha":944,"x_min":56,"x_max":889,"o":"m 329 69 q 250 208 314 208 q 181 160 181 208 q 264 69 181 69 l 329 69 m 333 0 l 278 0 q 56 160 56 0 q 250 278 56 278 q 557 74 429 278 q 611 160 611 88 q 497 322 611 281 l 296 397 q 153 563 153 450 q 431 722 153 722 q 708 479 708 722 l 667 479 q 535 611 639 611 q 431 521 431 611 q 522 388 431 421 l 707 319 q 889 160 889 251 q 667 0 889 0 l 597 0 q 611 -28 604 -14 l 611 -514 l 333 -514 l 333 0 z "},"ပ":{"ha":944,"x_min":56,"x_max":889,"o":"m 417 69 l 528 69 q 611 160 611 69 l 611 563 q 528 653 611 653 l 528 722 l 667 722 q 889 563 889 722 l 889 160 q 667 0 889 0 l 278 0 q 56 160 56 0 l 56 563 q 278 722 56 722 l 417 722 l 417 653 q 333 563 333 653 l 333 160 q 417 69 333 69 z "},"ဖ":{"ha":944,"x_min":56,"x_max":889,"o":"m 667 722 q 889 563 889 722 l 889 160 q 667 0 889 0 l 278 0 q 56 160 56 0 l 56 563 q 278 722 56 722 l 417 722 l 417 653 q 333 563 333 653 l 333 160 q 417 69 333 69 l 528 69 q 611 160 611 69 l 611 203 q 472 472 472 299 l 472 556 q 576 722 472 722 l 667 722 m 611 293 l 611 563 q 576 635 611 635 q 542 556 542 635 l 542 472 q 611 293 542 368 z "},"ဗ":{"ha":944,"x_min":56,"x_max":889,"o":"m 333 568 l 333 160 q 417 69 333 69 l 528 69 q 611 160 611 69 l 611 568 q 472 546 553 546 q 333 568 392 546 m 375 654 q 472 615 414 615 q 569 654 531 615 l 569 722 l 667 722 q 889 563 889 722 l 889 160 q 667 0 889 0 l 278 0 q 56 160 56 0 l 56 563 q 278 722 56 722 l 375 722 l 375 654 z "},"ဘ":{"ha":1500,"x_min":56,"x_max":1444,"o":"m 694 699 q 833 722 747 722 l 1222 722 q 1444 563 1444 722 l 1444 160 q 1222 0 1444 0 l 1083 0 l 1083 69 q 1167 160 1167 69 l 1167 563 q 1083 653 1167 653 l 972 653 q 889 563 889 653 l 889 160 q 667 0 889 0 l 278 0 q 56 160 56 0 l 56 278 l 333 278 l 333 160 q 417 69 333 69 l 528 69 q 611 160 611 69 l 611 479 q 472 611 611 611 q 97 479 125 611 l 56 479 q 472 722 56 722 q 694 699 604 722 z "},"မ":{"ha":944,"x_min":56,"x_max":889,"o":"m 333 217 l 333 160 q 417 69 333 69 l 528 69 q 611 160 611 69 l 611 217 q 472 250 554 250 q 333 217 390 250 m 611 286 l 611 563 q 528 653 611 653 l 528 722 l 667 722 q 889 563 889 722 l 889 160 q 667 0 889 0 l 278 0 q 56 160 56 0 l 56 563 q 278 722 56 722 l 417 722 l 417 653 q 333 563 333 653 l 333 286 q 472 319 390 319 q 611 286 554 319 z "},"ယ":{"ha":1500,"x_min":56,"x_max":1444,"o":"m 611 563 q 528 653 611 653 l 528 722 l 667 722 q 889 563 889 722 l 889 160 q 972 69 889 69 l 1083 69 q 1167 160 1167 69 l 1167 563 q 1083 653 1167 653 l 1083 722 l 1222 722 q 1444 563 1444 722 l 1444 160 q 1222 0 1444 0 l 833 0 q 750 7 786 0 q 667 0 713 0 l 278 0 q 56 160 56 0 l 56 563 q 278 722 56 722 l 417 722 l 417 653 q 333 563 333 653 l 333 160 q 417 69 333 69 l 528 69 q 611 160 611 69 l 611 563 z "},"ရ":{"ha":944,"x_min":56,"x_max":1000,"o":"m 333 429 l 333 160 q 368 88 333 88 q 403 167 403 88 l 403 250 q 333 429 403 354 m 278 0 q 56 160 56 0 l 56 563 q 278 722 56 722 l 667 722 q 889 563 889 722 l 889 -347 q 944 -444 889 -444 l 1000 -444 l 1000 -514 l 764 -514 q 611 -347 611 -514 l 611 563 q 528 653 611 653 l 417 653 q 333 563 333 653 l 333 519 q 472 250 472 424 l 472 167 q 368 0 472 0 l 278 0 z "},"လ":{"ha":1500,"x_min":56,"x_max":1444,"o":"m 889 160 q 972 69 889 69 l 1083 69 q 1167 160 1167 69 l 1167 563 q 1083 653 1167 653 l 1083 722 l 1222 722 q 1444 563 1444 722 l 1444 160 q 1222 0 1444 0 l 833 0 q 611 160 611 0 l 611 563 q 528 653 611 653 l 417 653 q 333 563 333 653 l 333 160 q 417 69 333 69 l 417 0 l 278 0 q 56 160 56 0 l 56 563 q 278 722 56 722 l 667 722 q 889 563 889 722 l 889 160 z "},"ဝ":{"ha":944,"x_min":56,"x_max":889,"o":"m 417 653 q 333 563 333 653 l 333 160 q 417 69 333 69 l 528 69 q 611 160 611 69 l 611 563 q 528 653 611 653 l 417 653 m 278 0 q 56 160 56 0 l 56 563 q 278 722 56 722 l 667 722 q 889 563 889 722 l 889 160 q 667 0 889 0 l 278 0 z "},"သ":{"ha":1500,"x_min":56,"x_max":1444,"o":"m 889 160 q 972 69 889 69 l 1083 69 q 1167 160 1167 69 l 1167 563 q 1083 653 1167 653 l 1083 722 l 1222 722 q 1444 563 1444 722 l 1444 160 q 1222 0 1444 0 l 833 0 q 750 7 788 0 q 667 0 714 0 l 278 0 q 56 160 56 0 l 56 278 l 333 278 l 333 160 q 417 69 333 69 l 528 69 q 611 160 611 69 l 611 479 q 472 611 611 611 q 97 479 125 611 l 56 479 q 472 722 56 722 q 889 479 889 722 l 889 160 z "},"ဟ":{"ha":1792,"x_min":56,"x_max":1444,"o":"m 750 715 q 833 722 788 722 l 1222 722 q 1444 563 1444 722 l 1444 160 q 1222 0 1444 0 l 1083 0 l 1083 69 q 1167 160 1167 69 l 1167 563 q 1083 653 1167 653 l 972 653 q 889 563 889 653 l 889 160 q 667 0 889 0 l 278 0 q 56 160 56 0 l 56 563 q 278 722 56 722 l 417 722 l 417 653 q 333 563 333 653 l 333 160 q 417 69 333 69 l 528 69 q 611 160 611 69 l 611 563 q 528 653 611 653 l 528 722 l 667 722 q 750 715 714 722 z "},"ဠ":{"ha":944,"x_min":56,"x_max":889,"o":"m 889 63 q 528 -153 889 -153 l 333 -153 l 333 -354 q 417 -444 333 -444 l 528 -444 q 611 -354 611 -444 l 611 -236 l 889 -236 l 889 -354 q 667 -514 889 -514 l 278 -514 q 56 -354 56 -514 l 56 -28 q 417 -83 179 -83 l 528 -83 q 611 0 611 -83 l 278 0 q 56 160 56 0 l 56 479 q 472 722 56 722 q 889 479 889 722 l 847 479 q 472 611 819 611 q 333 479 333 611 l 333 160 q 417 69 333 69 l 528 69 q 611 160 611 69 l 611 278 l 889 278 l 889 63 z "},"အ":{"ha":1500,"x_min":56,"x_max":1444,"o":"m 1097 250 l 1097 167 q 1132 88 1097 88 q 1167 160 1167 88 l 1167 429 q 1097 250 1097 354 m 693 697 q 833 722 746 722 l 1222 722 q 1444 563 1444 722 l 1444 160 q 1222 0 1444 0 l 1132 0 q 1028 167 1028 0 l 1028 250 q 1167 519 1028 424 l 1167 563 q 1083 653 1167 653 l 972 653 q 889 563 889 653 l 889 472 q 783 361 889 401 q 889 222 889 321 l 889 160 q 667 0 889 0 l 278 0 q 56 160 56 0 l 56 278 l 333 278 l 333 160 q 417 69 333 69 l 528 69 q 611 160 611 69 l 611 222 q 528 326 611 326 l 417 326 l 417 396 l 528 396 q 611 472 611 396 q 472 611 611 611 q 97 479 125 611 l 56 479 q 472 722 56 722 q 693 697 603 722 z "},"ဢ":{"ha":1500,"x_min":56,"x_max":1444,"o":"m 333 236 q 431 69 333 167 l 431 0 l 56 0 l 56 69 l 293 69 q 56 236 56 144 l 56 563 q 278 722 56 722 l 667 722 q 750 715 713 722 q 833 722 786 722 l 1222 722 q 1444 563 1444 722 l 1444 160 q 1222 0 1444 0 l 1083 0 l 1083 69 q 1167 160 1167 69 l 1167 563 q 1083 653 1167 653 l 972 653 q 889 563 889 653 l 889 160 q 667 0 889 0 l 528 0 l 528 69 q 611 160 611 69 l 611 563 q 528 653 611 653 l 417 653 q 333 563 333 653 l 333 236 z "},"ဣ":{"ha":1500,"x_min":56,"x_max":1444,"o":"m 611 563 q 528 653 611 653 l 417 653 q 333 563 333 653 l 333 160 q 417 69 333 69 l 417 0 l 278 0 q 56 160 56 0 l 56 563 q 278 722 56 722 l 667 722 q 750 715 713 722 q 833 722 786 722 l 1222 722 q 1444 563 1444 722 l 1444 160 q 1222 0 1444 0 l 1083 0 l 1083 69 q 1167 160 1167 69 l 1167 563 q 1083 653 1167 653 l 972 653 q 889 563 889 653 l 889 160 q 667 0 889 0 l 528 0 l 528 69 q 611 160 611 69 l 611 563 m 889 -354 q 667 -514 889 -514 l 528 -514 l 528 -444 q 611 -354 611 -444 l 611 -187 q 528 -97 611 -97 l 417 -97 q 333 -187 333 -97 l 333 -354 q 417 -444 333 -444 l 417 -514 l 278 -514 q 56 -354 56 -514 l 56 -187 q 278 -28 56 -28 l 667 -28 q 750 -35 714 -28 q 833 -28 788 -28 l 1222 -28 q 1444 -187 1444 -28 l 1444 -278 q 1207 -444 1444 -369 l 1444 -444 l 1444 -514 l 1069 -514 l 1069 -444 q 1167 -278 1167 -347 l 1167 -187 q 1083 -97 1167 -97 l 972 -97 q 889 -187 889 -97 l 889 -354 z "},"ဤ":{"ha":1889,"x_min":56,"x_max":1833,"o":"m 611 563 q 528 653 611 653 l 417 653 q 333 563 333 653 l 333 160 q 417 69 333 69 l 417 0 l 278 0 q 56 160 56 0 l 56 563 q 278 722 56 722 l 667 722 q 750 715 713 722 q 833 722 786 722 l 1222 722 q 1444 563 1444 722 l 1444 -354 q 1222 -514 1444 -514 l 278 -514 q 56 -354 56 -514 l 56 -229 q 278 -69 56 -69 l 1042 -69 l 1042 -139 l 417 -139 q 333 -229 333 -139 l 333 -354 q 417 -444 333 -444 l 1083 -444 q 1167 -354 1167 -444 l 1167 563 q 1083 653 1167 653 l 972 653 q 889 563 889 653 l 889 160 q 667 0 889 0 l 528 0 l 528 69 q 611 160 611 69 l 611 563 m 1219 743 q 1042 878 1042 743 l 1042 1024 q 1375 1229 1042 1229 q 1708 996 1708 1229 l 1675 996 q 1375 1113 1653 1113 q 1292 1024 1292 1113 l 1292 878 q 1340 813 1292 813 l 1611 813 q 1833 563 1833 813 l 1833 -514 l 1556 -514 l 1556 563 q 1375 743 1556 743 l 1219 743 z "},"ဥ":{"ha":944,"x_min":56,"x_max":889,"o":"m 56 278 l 333 278 l 333 160 q 417 69 333 69 l 528 69 q 611 160 611 69 l 611 479 q 472 611 611 611 q 97 479 125 611 l 56 479 q 472 722 56 722 q 889 479 889 722 l 889 160 q 667 0 889 0 l 333 0 l 333 -354 q 417 -444 333 -444 l 528 -444 q 611 -354 611 -444 l 611 -257 q 528 -167 611 -167 q 417 -243 444 -167 l 375 -243 q 632 -56 375 -56 q 889 -257 889 -56 l 889 -354 q 667 -514 889 -514 l 278 -514 q 56 -354 56 -514 l 56 278 z "},"ဦ":{"ha":944,"x_min":56,"x_max":889,"o":"m 56 278 l 333 278 l 333 160 q 417 69 333 69 l 528 69 q 611 160 611 69 l 611 479 q 472 611 611 611 q 97 479 125 611 l 56 479 q 472 722 56 722 q 889 479 889 722 l 889 160 q 667 0 889 0 l 333 0 l 333 -354 q 417 -444 333 -444 l 528 -444 q 611 -354 611 -444 l 611 -257 q 528 -167 611 -167 q 417 -243 444 -167 l 375 -243 q 632 -56 375 -56 q 889 -257 889 -56 l 889 -354 q 667 -514 889 -514 l 278 -514 q 56 -354 56 -514 l 56 278 m 551 1006 l 551 1115 q 496 1167 551 1167 l 449 1167 q 393 1115 393 1167 l 393 1006 q 472 1007 431 1007 q 551 1006 514 1007 m 393 935 l 393 871 q 449 819 393 819 l 496 819 q 551 871 551 819 l 551 935 q 472 938 515 938 q 393 935 429 938 m 194 871 l 194 1115 q 343 1236 194 1236 l 601 1236 q 750 1115 750 1236 l 750 871 q 601 750 750 750 l 343 750 q 194 871 194 750 z "},"ဧ":{"ha":944,"x_min":56,"x_max":889,"o":"m 542 514 q 611 563 611 514 q 528 653 611 653 l 417 653 q 360 636 381 653 q 542 514 422 514 m 360 86 q 417 69 381 69 l 528 69 q 611 160 611 69 q 542 208 611 208 q 360 86 422 208 m 56 563 q 278 722 56 722 l 667 722 q 889 563 889 722 q 694 444 889 444 l 542 444 q 333 546 406 444 l 333 176 q 542 278 406 278 l 694 278 q 889 160 889 278 q 667 0 889 0 l 278 0 q 56 160 56 0 l 56 563 z "},"ဨ":{"ha":944,"x_min":56,"x_max":889,"o":"m 889 -56 l 889 -354 q 667 -514 889 -514 l 278 -514 q 56 -354 56 -514 l 56 563 q 278 722 56 722 l 667 722 q 889 563 889 722 l 889 222 q 644 0 889 0 q 399 179 399 0 l 399 211 l 454 238 q 514 319 514 276 q 474 375 514 375 q 431 308 431 375 l 361 308 q 474 444 361 444 q 583 319 583 444 q 510 211 583 257 l 510 179 q 561 139 510 139 q 611 222 611 139 l 611 563 q 528 653 611 653 l 417 653 q 333 563 333 653 l 333 -354 q 417 -444 333 -444 l 528 -444 q 611 -354 611 -444 l 611 -56 l 889 -56 z "},"ဩ":{"ha":1889,"x_min":56,"x_max":1833,"o":"m 1278 0 l 1222 0 q 1139 7 1176 0 q 1056 0 1103 0 l 667 0 q 444 160 444 0 l 444 278 l 722 278 l 722 160 q 806 69 722 69 l 917 69 q 1000 160 1000 69 l 1000 479 q 861 611 1000 611 q 486 479 514 611 l 444 479 q 861 722 444 722 q 1278 479 1278 722 l 1278 160 q 1361 69 1278 69 l 1472 69 q 1556 160 1556 69 l 1556 563 q 1472 653 1556 653 l 1472 722 l 1611 722 q 1833 563 1833 722 l 1833 160 q 1611 0 1833 0 l 1556 0 l 1556 -354 q 1333 -514 1556 -514 l 278 -514 q 56 -354 56 -514 l 56 1076 q 278 1236 56 1236 l 1375 1236 l 1375 1167 l 417 1167 q 333 1076 333 1167 l 333 -354 q 417 -444 333 -444 l 1194 -444 q 1278 -354 1278 -444 l 1278 0 z "},"ဪ":{"ha":3389,"x_min":56,"x_max":3333,"o":"m 278 0 q 56 160 56 0 l 56 479 q 472 722 56 722 q 889 479 889 722 l 847 479 q 472 611 819 611 q 333 479 333 611 l 333 176 q 542 278 406 278 l 694 278 q 889 160 889 278 q 667 0 889 0 l 278 0 m 360 86 q 417 69 381 69 l 528 69 q 611 160 611 69 q 542 208 611 208 q 360 86 422 208 m 2778 563 l 2778 160 q 2556 0 2778 0 l 2500 0 l 2500 -354 q 2278 -514 2500 -514 l 1222 -514 q 1000 -354 1000 -514 l 1000 1076 q 1222 1236 1000 1236 l 2500 1236 l 2500 1167 l 1361 1167 q 1278 1076 1278 1167 l 1278 -354 q 1361 -444 1278 -444 l 2139 -444 q 2222 -354 2222 -444 l 2222 0 l 2167 0 q 2083 7 2121 0 q 2000 0 2047 0 l 1611 0 q 1389 160 1389 0 l 1389 278 l 1667 278 l 1667 160 q 1750 69 1667 69 l 1861 69 q 1944 160 1944 69 l 1944 479 q 1806 611 1944 611 q 1431 479 1458 611 l 1389 479 q 1806 722 1389 722 q 2222 479 2222 722 l 2222 160 q 2306 69 2222 69 l 2417 69 q 2500 160 2500 69 l 2500 563 q 2417 653 2500 653 l 2417 722 l 2556 722 q 2736 671 2682 722 q 2861 722 2774 722 l 3111 722 q 3333 563 3333 722 l 3333 160 q 3111 0 3333 0 l 2972 0 l 2972 69 q 3056 160 3056 69 l 3056 563 q 2972 653 3056 653 l 2861 653 q 2778 563 2778 653 m 2903 1113 q 2819 1024 2819 1113 l 2819 850 q 2868 790 2819 790 q 2917 850 2917 790 q 3028 931 2917 931 q 3139 850 3139 931 q 2961 743 3139 743 l 2747 743 q 2569 850 2569 743 l 2569 1024 q 2903 1229 2569 1229 q 3236 996 3236 1229 l 3203 996 q 2903 1113 3181 1113 z "},"ါ":{"ha":389,"x_min":-319,"x_max":333,"o":"m -69 1069 q -278 882 -250 1069 l -319 882 q -14 1181 -319 1181 q 333 854 333 1181 l 333 0 l 56 0 l 56 854 q -69 1069 56 1069 z "},"ာ":{"ha":556,"x_min":-125,"x_max":500,"o":"m 28 653 q -56 563 -56 653 l -125 563 q 28 722 -125 722 l 278 722 q 500 563 500 722 l 500 160 q 278 0 500 0 l 139 0 l 139 69 q 222 160 222 69 l 222 563 q 139 653 222 653 l 28 653 z "},"ိ":{"ha":0,"x_min":-750,"x_max":-194,"o":"m -496 1167 q -551 1115 -551 1167 l -551 871 q -496 819 -551 819 l -449 819 q -393 871 -393 819 l -393 1115 q -449 1167 -393 1167 l -496 1167 m -601 750 q -750 871 -750 750 l -750 1115 q -601 1236 -750 1236 l -343 1236 q -194 1115 -194 1236 l -194 871 q -343 750 -194 750 l -601 750 z "},"ီ":{"ha":0,"x_min":-750,"x_max":-194,"o":"m -393 1006 l -393 1115 q -449 1167 -393 1167 l -496 1167 q -551 1115 -551 1167 l -551 1006 q -472 1007 -514 1007 q -393 1006 -431 1007 m -551 935 l -551 871 q -496 819 -551 819 l -449 819 q -393 871 -393 819 l -393 935 q -472 938 -429 938 q -551 935 -515 938 m -750 871 l -750 1115 q -601 1236 -750 1236 l -343 1236 q -194 1115 -194 1236 l -194 871 q -343 750 -194 750 l -601 750 q -750 871 -750 750 z "},"ု":{"ha":0,"x_min":-611,"x_max":-222,"o":"m -611 -347 l -611 -28 l -333 -28 l -333 -347 q -278 -444 -333 -444 l -222 -444 l -222 -514 l -458 -514 q -611 -347 -611 -514 z "},"ူ":{"ha":0,"x_min":-743,"x_max":-90,"o":"m -743 -28 l -535 -28 l -535 -514 l -743 -514 l -743 -28 m -201 -347 q -146 -444 -201 -444 l -90 -444 l -90 -514 l -326 -514 q -479 -347 -479 -514 l -479 -28 l -201 -28 l -201 -347 z "},"ေ":{"ha":944,"x_min":56,"x_max":889,"o":"m 278 0 q 56 160 56 0 l 56 479 q 472 722 56 722 q 889 479 889 722 l 847 479 q 472 611 819 611 q 333 479 333 611 l 333 176 q 542 278 406 278 l 694 278 q 889 160 889 278 q 667 0 889 0 l 278 0 m 360 86 q 417 69 381 69 l 528 69 q 611 160 611 69 q 542 208 611 208 q 360 86 422 208 z "},"ဲ":{"ha":0,"x_min":-722,"x_max":-221,"o":"m -221 879 l -368 732 l -722 1086 l -575 1233 l -221 879 z "},"ဳ":{"ha":0,"x_min":-750,"x_max":-194,"o":"m -472 1083 q -382 993 -382 1083 q -472 903 -382 903 q -562 993 -562 903 q -472 1083 -562 1083 m -451 993 q -472 1014 -451 1014 q -493 993 -493 1014 q -472 972 -493 972 q -451 993 -451 972 m -537 1167 q -593 1115 -593 1167 l -593 871 q -537 819 -593 819 l -407 819 q -351 871 -351 819 l -351 1115 q -407 1167 -351 1167 l -537 1167 m -601 750 q -750 871 -750 750 l -750 1115 q -601 1236 -750 1236 l -343 1236 q -194 1115 -194 1236 l -194 871 q -343 750 -194 750 l -601 750 z "},"ဴ":{"ha":0,"x_min":-722,"x_max":-221,"o":"m -368 1233 l -221 1086 l -575 732 l -722 879 l -368 1233 z "},"ဵ":{"ha":0,"x_min":-806,"x_max":-139,"o":"m -556 931 l -556 864 q -507 819 -556 819 q -403 878 -403 819 q -460 938 -403 938 q -556 931 -507 938 m -556 1001 q -418 1007 -492 1007 q -258 970 -301 1007 q -214 878 -214 933 q -414 743 -214 743 l -517 743 q -806 947 -806 743 l -806 1024 q -472 1229 -806 1229 q -139 996 -139 1229 l -172 996 q -472 1113 -194 1113 q -556 1024 -556 1113 l -556 1001 z "},"ံ":{"ha":0,"x_min":-694,"x_max":-250,"o":"m -472 1111 q -250 931 -250 1111 q -472 750 -250 750 q -694 931 -694 750 q -472 1111 -694 1111 m -431 931 q -472 1014 -431 1014 q -514 931 -514 1014 q -472 847 -514 847 q -431 931 -431 847 z "},"့":{"ha":0,"x_min":-694,"x_max":-250,"o":"m -472 -28 q -250 -222 -250 -28 q -472 -417 -250 -417 q -694 -222 -694 -417 q -472 -28 -694 -28 m -431 -222 q -472 -139 -431 -139 q -514 -222 -514 -139 q -472 -306 -514 -306 q -431 -222 -431 -306 z "},"း":{"ha":556,"x_min":56,"x_max":500,"o":"m 278 722 q 500 569 500 722 q 278 417 500 417 q 56 569 56 417 q 278 722 56 722 m 319 569 q 278 653 319 653 q 236 569 236 653 q 278 486 236 486 q 319 569 319 486 m 278 306 q 500 153 500 306 q 278 0 500 0 q 56 153 56 0 q 278 306 56 306 m 319 153 q 278 236 319 236 q 236 153 236 236 q 278 69 236 69 q 319 153 319 69 z "},"္":{"ha":0,"x_min":-576,"x_max":-257,"o":"m -451 -222 l -576 -222 l -576 -153 l -451 -153 l -451 -28 l -382 -28 l -382 -153 l -257 -153 l -257 -222 l -382 -222 l -382 -347 l -451 -347 l -451 -222 z "},"်":{"ha":0,"x_min":-806,"x_max":-139,"o":"m -472 1113 q -556 1024 -556 1113 l -556 850 q -507 819 -556 819 q -458 850 -458 819 q -347 931 -458 931 q -236 850 -236 931 q -414 743 -236 743 l -628 743 q -806 850 -806 743 l -806 1024 q -472 1229 -806 1229 q -139 996 -139 1229 l -172 996 q -472 1113 -194 1113 z "},"ျ":{"ha":389,"x_min":-389,"x_max":333,"o":"m -111 -28 l -111 -354 q -28 -444 -111 -444 q 56 -354 56 -444 l 56 722 l 333 722 l 333 -354 q 111 -514 333 -514 l -167 -514 q -389 -354 -389 -514 l -389 -28 l -111 -28 z "},"ြ":{"ha":389,"x_min":56,"x_max":1278,"o":"m 56 1076 q 278 1236 56 1236 l 1056 1236 q 1278 1076 1278 1236 l 1278 792 l 1000 792 l 1000 1076 q 917 1167 1000 1167 l 417 1167 q 333 1076 333 1167 l 333 -354 q 417 -444 333 -444 l 917 -444 q 1000 -354 1000 -444 l 1000 139 l 1278 139 l 1278 -354 q 1056 -514 1278 -514 l 278 -514 q 56 -354 56 -514 l 56 1076 z "},"ွ":{"ha":0,"x_min":-750,"x_max":-194,"o":"m -496 -97 q -551 -149 -551 -97 l -551 -393 q -496 -444 -551 -444 l -449 -444 q -393 -393 -393 -444 l -393 -149 q -449 -97 -393 -97 l -496 -97 m -601 -514 q -750 -393 -750 -514 l -750 -149 q -601 -28 -750 -28 l -343 -28 q -194 -149 -194 -28 l -194 -393 q -343 -514 -194 -514 l -601 -514 z "},"ှ":{"ha":0,"x_min":-722,"x_max":-333,"o":"m -611 -28 l -333 -28 l -333 -347 q -486 -514 -333 -514 l -722 -514 l -722 -444 l -667 -444 q -611 -347 -611 -444 l -611 -28 z "},"ဿ":{"ha":2056,"x_min":56,"x_max":2000,"o":"m 1403 51 q 1222 0 1349 0 l 833 0 q 750 7 788 0 q 667 0 714 0 l 278 0 q 56 160 56 0 l 56 278 l 333 278 l 333 160 q 417 69 333 69 l 528 69 q 611 160 611 69 l 611 479 q 472 611 611 611 q 97 479 125 611 l 56 479 q 472 722 56 722 q 889 479 889 722 l 889 160 q 972 69 889 69 l 1083 69 q 1167 160 1167 69 l 1167 563 q 1083 653 1167 653 l 1083 722 l 1222 722 q 1444 563 1444 722 l 1444 160 q 1528 69 1444 69 l 1639 69 q 1722 160 1722 69 l 1722 563 q 1639 653 1722 653 l 1639 722 l 1778 722 q 2000 563 2000 722 l 2000 160 q 1778 0 2000 0 l 1528 0 q 1403 51 1440 0 z "},"၀":{"ha":944,"x_min":56,"x_max":889,"o":"m 417 653 q 333 563 333 653 l 333 160 q 417 69 333 69 l 528 69 q 611 160 611 69 l 611 563 q 528 653 611 653 l 417 653 m 278 0 q 56 160 56 0 l 56 563 q 278 722 56 722 l 667 722 q 889 563 889 722 l 889 160 q 667 0 889 0 l 278 0 z "},"၁":{"ha":944,"x_min":56,"x_max":889,"o":"m 472 611 q 97 479 125 611 l 56 479 q 472 722 56 722 q 889 479 889 722 l 889 160 q 667 0 889 0 l 278 0 q 56 160 56 0 l 56 278 l 333 278 l 333 160 q 417 69 333 69 l 528 69 q 611 160 611 69 l 611 479 q 472 611 611 611 z "},"၂":{"ha":944,"x_min":56,"x_max":889,"o":"m 417 -347 l 528 -347 q 611 -257 611 -347 l 611 722 l 889 722 l 889 -257 q 667 -417 889 -417 l 278 -417 q 56 -257 56 -417 l 56 -56 l 333 -56 l 333 -257 q 417 -347 333 -347 z "},"၃":{"ha":944,"x_min":56,"x_max":889,"o":"m 496 0 l 724 -228 l 576 -375 l 222 -21 l 244 1 q 56 160 56 13 l 56 278 l 333 278 l 333 160 q 417 69 333 69 l 528 69 q 611 160 611 69 l 611 479 q 472 611 611 611 q 97 479 125 611 l 56 479 q 472 722 56 722 q 889 479 889 722 l 889 160 q 667 0 889 0 l 496 0 z "},"၄":{"ha":944,"x_min":56,"x_max":889,"o":"m 278 0 q 56 160 56 0 l 56 479 q 472 722 56 722 q 889 479 889 722 l 847 479 q 472 611 819 611 q 333 479 333 611 l 333 160 q 417 69 333 69 l 528 69 q 611 160 611 69 l 611 278 l 889 278 l 889 160 q 700 1 889 13 l 722 -21 l 368 -375 l 221 -228 l 449 0 l 278 0 z "},"၅":{"ha":944,"x_min":56,"x_max":889,"o":"m 333 429 l 333 160 q 368 88 333 88 q 403 167 403 88 l 403 250 q 333 429 403 354 m 611 563 q 528 653 611 653 l 417 653 q 333 563 333 653 l 333 519 q 472 250 472 424 l 472 167 q 368 0 472 0 l 278 0 q 56 160 56 0 l 56 563 q 278 722 56 722 l 667 722 q 889 563 889 722 l 889 -257 q 667 -417 889 -417 l 278 -417 q 56 -257 56 -417 l 56 -69 l 333 -69 l 333 -257 q 417 -347 333 -347 l 528 -347 q 611 -257 611 -347 l 611 563 z "},"၆":{"ha":944,"x_min":56,"x_max":889,"o":"m 611 388 q 414 568 414 447 q 642 703 414 703 q 889 543 889 703 l 681 543 q 638 578 681 578 q 594 526 594 578 q 889 422 594 442 l 889 160 q 667 0 889 0 l 278 0 q 56 160 56 0 l 56 979 q 278 1139 56 1139 l 667 1139 q 889 979 889 1139 l 889 792 l 611 792 l 611 979 q 528 1069 611 1069 l 417 1069 q 333 979 333 1069 l 333 160 q 417 69 333 69 l 528 69 q 611 160 611 69 l 611 388 z "},"၇":{"ha":944,"x_min":56,"x_max":889,"o":"m 417 653 q 333 563 333 653 l 333 299 q 417 208 333 208 l 417 139 l 278 139 q 56 299 56 139 l 56 563 q 278 722 56 722 l 667 722 q 889 563 889 722 l 889 361 q 653 10 889 131 q 417 -243 417 -111 q 486 -347 417 -347 q 556 -167 556 -347 l 833 -167 q 486 -417 833 -417 q 139 -222 139 -417 q 375 16 139 -112 q 611 361 611 144 l 611 563 q 528 653 611 653 l 417 653 z "},"၈":{"ha":944,"x_min":56,"x_max":889,"o":"m 278 0 q 56 160 56 0 l 56 563 q 278 722 56 722 l 667 722 q 889 563 889 722 l 889 160 q 667 0 889 0 l 528 0 l 528 69 q 611 160 611 69 l 611 563 q 528 653 611 653 l 417 653 q 333 563 333 653 l 333 519 q 472 250 472 424 l 472 167 q 368 0 472 0 l 278 0 m 333 429 l 333 160 q 368 88 333 88 q 403 167 403 88 l 403 250 q 333 429 403 354 z "},"၉":{"ha":944,"x_min":56,"x_max":889,"o":"m 611 563 q 528 653 611 653 l 417 653 q 333 563 333 653 l 333 -257 q 417 -347 333 -347 l 528 -347 q 611 -257 611 -347 l 611 -69 l 889 -69 l 889 -257 q 667 -417 889 -417 l 278 -417 q 56 -257 56 -417 l 56 563 q 278 722 56 722 l 667 722 q 889 563 889 722 l 889 300 q 594 196 594 281 q 638 144 594 144 q 681 179 681 144 l 889 179 q 642 19 889 19 q 414 154 414 19 q 611 335 414 275 l 611 563 z "},"၊":{"ha":389,"x_min":56,"x_max":333,"o":"m 333 722 l 333 0 l 56 0 l 56 722 l 333 722 z "},"။":{"ha":736,"x_min":56,"x_max":681,"o":"m 681 722 l 681 0 l 403 0 l 403 722 l 681 722 m 333 722 l 333 0 l 56 0 l 56 722 l 333 722 z "},"၌":{"ha":1056,"x_min":56,"x_max":889,"o":"m 611 -153 l 417 -153 q 56 63 56 -153 l 56 278 l 333 278 l 333 160 q 417 69 333 69 l 528 69 q 611 160 611 69 l 611 479 q 472 611 611 611 q 97 479 125 611 l 56 479 q 472 722 56 722 q 889 479 889 722 l 889 160 q 667 0 889 0 l 333 0 q 417 -83 333 -83 l 528 -83 q 889 -28 765 -83 l 889 -354 q 667 -514 889 -514 l 278 -514 q 56 -354 56 -514 l 56 -208 l 333 -208 l 333 -354 q 417 -444 333 -444 l 528 -444 q 611 -354 611 -444 l 611 -153 m 472 1113 q 389 1024 389 1113 l 389 850 q 438 819 389 819 q 486 850 486 819 q 597 931 486 931 q 708 850 708 931 q 531 743 708 743 l 317 743 q 139 850 139 743 l 139 1024 q 472 1229 139 1229 q 806 996 806 1229 l 772 996 q 472 1113 750 1113 z "},"၍":{"ha":1333,"x_min":56,"x_max":1278,"o":"m 333 429 l 333 160 q 368 88 333 88 q 403 167 403 88 l 403 250 q 333 429 403 354 m 278 0 q 56 160 56 0 l 56 563 q 278 722 56 722 l 667 722 q 889 563 889 722 l 889 -347 l 611 -347 l 611 563 q 528 653 611 653 l 417 653 q 333 563 333 653 l 333 519 q 472 250 472 424 l 472 167 q 368 0 472 0 l 278 0 m 1278 -354 q 1056 -514 1278 -514 l 278 -514 q 56 -354 56 -514 l 56 -257 q 313 -56 56 -56 q 569 -243 569 -56 l 528 -243 q 417 -167 500 -167 q 333 -257 333 -167 l 333 -354 q 417 -444 333 -444 l 917 -444 q 1000 -354 1000 -444 l 1000 563 q 875 750 1000 750 l 719 750 q 542 857 542 750 l 542 1024 q 875 1229 542 1229 q 1208 996 1208 1229 l 1175 996 q 875 1113 1153 1113 q 792 1024 792 1113 l 792 857 q 840 819 792 819 l 875 819 q 1278 563 1278 819 l 1278 -354 z "},"၎":{"ha":944,"x_min":56,"x_max":889,"o":"m 889 -514 l 611 -514 l 611 0 l 278 0 q 56 160 56 0 l 56 479 q 472 722 56 722 q 889 479 889 722 l 847 479 q 472 611 819 611 q 333 479 333 611 l 333 160 q 417 69 333 69 l 528 69 q 611 160 611 69 l 611 278 l 889 278 l 889 -514 z "},"၏":{"ha":1722,"x_min":56,"x_max":1667,"o":"m 542 514 q 611 563 611 514 q 528 653 611 653 l 417 653 q 360 636 381 653 q 542 514 422 514 m 360 86 q 417 69 381 69 l 528 69 q 611 160 611 69 q 542 208 611 208 q 360 86 422 208 m 843 674 q 1014 722 903 722 q 1278 563 1278 722 l 1278 0 l 1000 0 l 1000 563 q 931 611 1000 611 q 885 601 906 611 q 889 563 889 583 q 694 444 889 444 l 542 444 q 333 546 406 444 l 333 176 q 542 278 406 278 l 694 278 q 889 160 889 278 q 667 0 889 0 l 278 0 q 56 160 56 0 l 56 563 q 278 722 56 722 l 667 722 q 843 674 789 722 m 1389 0 l 1389 563 q 1264 750 1389 750 l 1108 750 q 931 857 931 750 l 931 1024 q 1264 1229 931 1229 q 1597 996 1597 1229 l 1564 996 q 1264 1113 1542 1113 q 1181 1024 1181 1113 l 1181 857 q 1229 819 1181 819 l 1264 819 q 1667 563 1667 819 l 1667 0 l 1389 0 z "},"ၐ":{"ha":944,"x_min":56,"x_max":889,"o":"m 472 431 q 542 361 542 431 q 472 292 542 292 q 403 361 403 292 q 472 431 403 431 m 417 653 q 333 563 333 653 l 333 160 q 417 69 333 69 l 417 0 l 278 0 q 56 160 56 0 l 56 563 q 278 722 56 722 l 667 722 q 889 563 889 722 l 889 160 q 667 0 889 0 l 528 0 l 528 69 q 611 160 611 69 l 611 563 q 528 653 611 653 l 417 653 z "},"ၑ":{"ha":944,"x_min":56,"x_max":889,"o":"m 472 292 q 403 361 403 292 q 472 431 403 431 q 542 361 542 431 q 472 292 542 292 m 417 69 l 528 69 q 611 160 611 69 l 611 563 q 528 653 611 653 l 528 722 l 667 722 q 889 563 889 722 l 889 160 q 667 0 889 0 l 278 0 q 56 160 56 0 l 56 563 q 278 722 56 722 l 417 722 l 417 653 q 333 563 333 653 l 333 160 q 417 69 333 69 z "},"ၒ":{"ha":944,"x_min":56,"x_max":889,"o":"m 611 486 q 514 653 611 556 l 514 722 l 889 722 l 889 653 l 651 653 q 889 486 889 578 l 889 160 q 667 0 889 0 l 278 0 q 56 160 56 0 l 56 563 q 278 722 56 722 l 417 722 l 417 653 q 333 563 333 653 l 333 160 q 417 69 333 69 l 528 69 q 611 160 611 69 l 611 486 z "},"ၓ":{"ha":944,"x_min":56,"x_max":889,"o":"m 278 0 q 56 160 56 0 l 56 486 q 293 653 56 578 l 56 653 l 56 722 l 417 722 l 417 653 q 333 486 333 556 l 333 160 q 417 69 333 69 l 528 69 q 611 160 611 69 l 611 486 q 528 653 611 556 l 528 722 l 889 722 l 889 653 l 651 653 q 889 486 889 578 l 889 160 q 667 0 889 0 l 278 0 z "},"ၔ":{"ha":944,"x_min":56,"x_max":889,"o":"m 360 636 q 542 514 422 514 q 611 563 611 514 q 528 653 611 653 l 417 653 q 360 636 381 653 m 667 722 q 889 563 889 722 q 694 444 889 444 l 542 444 q 333 546 406 444 l 333 160 q 417 69 333 69 l 528 69 q 611 160 611 69 l 611 278 l 889 278 l 889 160 q 667 0 889 0 l 278 0 q 56 160 56 0 l 56 563 q 278 722 56 722 l 667 722 z "},"ၕ":{"ha":944,"x_min":56,"x_max":889,"o":"m 360 636 q 542 514 422 514 q 611 563 611 514 q 528 653 611 653 l 417 653 q 360 636 381 653 m 667 722 q 889 563 889 722 q 694 444 889 444 l 542 444 q 333 546 406 444 l 333 69 l 472 236 l 611 69 l 611 278 l 889 278 l 889 160 q 667 0 889 0 l 569 0 l 472 111 l 375 0 l 278 0 q 56 160 56 0 l 56 563 q 278 722 56 722 l 667 722 z "},"ၖ":{"ha":556,"x_min":-333,"x_max":500,"o":"m 222 486 q 125 653 222 556 l 125 722 l 500 722 l 500 653 l 263 653 q 500 486 500 578 l 500 160 q 278 0 500 0 l -111 0 q -333 160 -333 0 l -56 160 q 28 69 -56 69 l 139 69 q 222 160 222 69 l 222 486 z "},"ၗ":{"ha":556,"x_min":-333,"x_max":500,"o":"m 222 486 q 125 653 222 556 l 125 722 l 500 722 l 500 653 l 263 653 q 500 486 500 578 l 500 160 q 278 0 500 0 l 181 0 l 83 111 l -14 0 l -111 0 q -333 160 -333 0 l -333 228 l -56 228 l -56 69 l 83 236 l 222 69 l 222 486 z "},"ၘ":{"ha":0,"x_min":-806,"x_max":-139,"o":"m -556 -215 q -460 -222 -507 -222 q -403 -162 -403 -222 q -507 -104 -403 -104 q -556 -149 -556 -104 l -556 -215 m -556 -308 q -472 -397 -556 -397 q -172 -281 -194 -397 l -139 -281 q -472 -514 -139 -514 q -806 -308 -806 -514 l -806 -232 q -558 -28 -806 -28 l -456 -28 q -214 -162 -214 -28 q -258 -255 -214 -218 q -418 -292 -301 -292 q -556 -286 -492 -292 l -556 -308 z "},"ၙ":{"ha":0,"x_min":-806,"x_max":-214,"o":"m -606 -215 q -460 -222 -507 -222 q -403 -162 -403 -222 q -507 -104 -403 -104 q -606 -149 -606 -104 l -606 -215 m -606 -308 q -575 -407 -606 -407 q -510 -326 -546 -407 l -462 -326 q -383 -407 -412 -407 q -350 -336 -350 -407 l -214 -336 q -358 -514 -214 -514 q -486 -399 -428 -514 q -600 -514 -544 -514 q -806 -308 -806 -514 l -806 -232 q -558 -28 -806 -28 l -456 -28 q -214 -162 -214 -28 q -258 -255 -214 -218 q -418 -292 -301 -292 q -606 -286 -492 -292 l -606 -308 z "},"ၚ":{"ha":944,"x_min":56,"x_max":889,"o":"m 438 -267 q 486 -247 438 -267 q 535 -174 535 -226 q 472 -125 535 -125 q 410 -174 410 -125 l 243 -174 q 472 -28 243 -28 q 701 -174 701 -28 q 604 -306 701 -261 q 507 -376 507 -350 q 542 -417 507 -417 l 588 -417 l 588 -514 l 542 -514 q 340 -376 340 -514 q 438 -267 340 -307 m 472 611 q 333 479 333 611 l 333 160 q 417 69 333 69 l 528 69 q 611 160 611 69 l 611 278 l 889 278 l 889 160 q 667 0 889 0 l 278 0 q 56 160 56 0 l 56 479 q 472 722 56 722 q 889 479 889 722 l 847 479 q 472 611 819 611 z "},"ၛ":{"ha":1333,"x_min":56,"x_max":1278,"o":"m 819 479 q 729 549 819 549 q 639 479 639 549 q 729 410 639 410 q 819 479 819 410 m 389 0 l 278 0 q 56 160 56 0 l 56 479 q 472 722 56 722 q 889 481 888 722 q 1000 390 889 390 l 1000 722 l 1278 722 l 1278 -354 q 1056 -514 1278 -514 l 611 -514 q 389 -354 389 -514 l 389 0 m 1000 321 q 846 372 879 321 q 729 340 806 340 q 569 479 569 340 q 638 601 569 569 q 472 611 567 611 q 333 479 333 611 l 333 160 q 417 69 333 69 l 528 69 q 611 160 611 69 l 611 250 l 889 250 l 889 160 q 667 0 889 0 l 667 -354 q 750 -444 667 -444 l 917 -444 q 1000 -354 1000 -444 l 1000 321 z "},"ၜ":{"ha":944,"x_min":56,"x_max":889,"o":"m 472 465 q 576 361 576 465 q 472 257 576 257 q 368 361 368 257 q 472 465 368 465 m 499 361 q 472 388 499 388 q 446 361 446 388 q 472 335 446 335 q 499 361 499 335 m 417 653 q 333 563 333 653 l 333 160 q 417 69 333 69 l 528 69 q 611 160 611 69 l 611 563 q 528 653 611 653 l 417 653 m 278 0 q 56 160 56 0 l 56 563 q 278 722 56 722 l 667 722 q 889 563 889 722 l 889 160 q 667 0 889 0 l 278 0 z "},"ၝ":{"ha":944,"x_min":56,"x_max":889,"o":"m 333 217 l 333 160 q 417 69 333 69 l 528 69 q 611 160 611 69 l 611 217 q 472 250 554 250 q 333 217 390 250 m 611 0 l 278 0 q 56 160 56 0 l 56 563 q 278 722 56 722 l 417 722 l 417 653 q 333 563 333 653 l 333 286 q 472 319 390 319 q 611 286 554 319 l 611 563 q 528 653 611 653 l 528 722 l 667 722 q 889 563 889 722 l 889 160 q 768 11 889 42 l 889 -25 l 889 -354 q 667 -514 889 -514 l 278 -514 q 56 -354 56 -514 l 56 -257 q 313 -56 56 -56 q 569 -243 569 -56 l 528 -243 q 417 -167 500 -167 q 333 -257 333 -167 l 333 -354 q 417 -444 333 -444 l 528 -444 q 611 -354 611 -444 l 611 0 z "},"ၞ":{"ha":0,"x_min":-889,"x_max":56,"o":"m -333 -167 l -375 -167 q -611 -257 -611 -167 l -611 -354 q -528 -444 -611 -444 l -417 -444 q -333 -354 -333 -444 l -333 -167 m -56 -101 q 56 -243 56 -149 l 14 -243 q -56 -196 3 -214 l -56 -354 q -278 -514 -56 -514 l -667 -514 q -889 -354 -889 -514 l -889 -257 q -382 -56 -889 -56 l -333 -56 l -333 0 l -176 39 l -56 -25 l -56 -101 z "},"ၟ":{"ha":0,"x_min":-757,"x_max":-187,"o":"m -431 -140 q -549 -268 -549 -140 q -472 -410 -549 -410 q -396 -261 -396 -410 l -187 -261 q -472 -493 -187 -493 q -757 -268 -757 -493 q -447 -49 -757 -68 l -447 0 l -236 -1 l -236 -142 l -431 -140 z "},"ၠ":{"ha":0,"x_min":-769,"x_max":-286,"o":"m -517 -333 l -286 -333 l -286 -417 l -740 -417 l -769 -360 l -526 -64 l -361 -149 l -517 -333 z "},"ၡ":{"ha":944,"x_min":56,"x_max":1000,"o":"m 333 429 l 333 160 q 368 88 333 88 q 403 167 403 88 l 403 250 q 333 429 403 354 m 250 0 q 56 160 56 10 l 56 563 q 278 722 56 722 l 667 722 q 889 563 889 722 l 889 -347 q 944 -444 889 -444 l 1000 -444 l 1000 -514 l 764 -514 q 611 -347 611 -514 l 611 563 q 528 653 611 653 l 417 653 q 333 563 333 653 l 333 519 q 472 250 472 424 l 472 -347 q 333 -514 472 -514 l 139 -514 l 139 -444 l 194 -444 q 250 -347 250 -444 l 250 0 z "},"ၢ":{"ha":389,"x_min":-56,"x_max":333,"o":"m 333 0 l 56 0 l 56 653 l -56 653 l -56 722 l 333 722 l 333 0 z "},"ၣ":{"ha":944,"x_min":56,"x_max":889,"o":"m 56 278 l 333 278 l 333 160 q 417 69 333 69 l 528 69 q 611 160 611 69 l 611 479 q 472 611 611 611 q 97 479 125 611 l 56 479 q 472 722 56 722 q 889 479 889 722 l 889 160 q 667 0 889 0 l 333 0 l 333 -514 l 56 -514 l 56 278 z "},"ၤ":{"ha":389,"x_min":-56,"x_max":444,"o":"m 333 69 l 444 69 l 444 0 l 56 0 l 56 653 l -56 653 l -56 722 l 333 722 l 333 69 z "},"ၥ":{"ha":944,"x_min":56,"x_max":889,"o":"m 472 611 q 97 479 125 611 l 56 479 q 472 722 56 722 q 889 479 889 722 l 889 160 q 667 0 889 0 l 278 0 q 56 160 56 0 l 56 278 l 333 278 l 333 160 q 417 69 333 69 l 528 69 q 611 160 611 69 l 611 479 q 472 611 611 611 z "},"ၦ":{"ha":944,"x_min":56,"x_max":889,"o":"m 556 0 l 278 0 q 56 160 56 0 l 56 563 q 278 722 56 722 l 417 722 l 417 653 q 333 563 333 653 l 333 160 q 417 69 333 69 l 528 69 q 611 160 611 69 l 611 563 q 528 653 611 653 l 528 722 l 667 722 q 889 563 889 722 l 889 160 q 833 40 889 79 l 833 -347 q 681 -514 833 -514 l 444 -514 l 444 -444 l 500 -444 q 556 -347 556 -444 l 556 0 z "},"ၧ":{"ha":444,"x_min":-28,"x_max":389,"o":"m 146 139 q 111 174 146 174 q 76 139 76 174 q 111 104 76 104 q 146 139 146 104 m 111 278 l 111 722 l 389 722 l 389 208 q 111 0 389 0 q -28 139 -28 0 q 111 278 -28 278 z "},"ၨ":{"ha":389,"x_min":-56,"x_max":403,"o":"m 333 0 l -56 0 l -56 69 l 56 69 l 56 722 l 333 722 l 333 0 m 194 1028 q 403 889 403 1028 q 194 750 403 750 q -14 889 -14 750 q 194 1028 -14 1028 m 264 889 q 194 958 264 958 q 125 889 125 958 q 194 819 125 819 q 264 889 264 819 z "},"ၩ":{"ha":544,"x_min":56,"x_max":489,"o":"m 397 352 q 351 322 397 352 q 306 199 306 292 q 399 69 306 69 l 489 69 l 489 0 l 357 0 q 56 199 56 0 q 147 369 56 308 q 239 522 239 429 q 146 653 239 653 l 56 653 l 56 722 l 188 722 q 489 522 489 722 q 397 352 489 413 z "},"ၪ":{"ha":389,"x_min":-375,"x_max":333,"o":"m -21 69 q 56 185 56 69 l 56 722 l 333 722 l 333 185 q -21 0 333 0 q -375 185 -375 0 l -375 282 l -97 282 l -97 185 q -21 69 -97 69 z "},"ၫ":{"ha":389,"x_min":-375,"x_max":333,"o":"m -21 653 q -97 538 -97 653 l -97 440 l -375 440 l -375 538 q -21 722 -375 722 q 333 538 333 722 l 333 0 l 56 0 l 56 538 q -21 653 56 653 z "},"ၬ":{"ha":389,"x_min":56,"x_max":764,"o":"m 410 69 q 486 185 486 69 l 486 282 l 764 282 l 764 185 q 410 0 764 0 q 56 185 56 0 l 56 722 l 333 722 l 333 185 q 410 69 333 69 z "},"ၭ":{"ha":544,"x_min":56,"x_max":489,"o":"m 147 352 q 101 382 147 352 q 56 522 56 413 q 357 722 56 722 l 489 722 l 489 653 l 399 653 q 306 522 306 653 q 397 369 306 429 q 489 199 489 308 q 188 0 489 0 l 56 0 l 56 69 l 146 69 q 239 199 239 69 q 147 352 239 292 z "},"ၮ":{"ha":1903,"x_min":56,"x_max":1847,"o":"m 1069 722 q 1153 715 1115 722 q 1236 722 1189 722 l 1625 722 q 1847 563 1847 722 l 1847 160 q 1625 0 1847 0 l 1486 0 l 1486 69 q 1569 160 1569 69 l 1569 563 q 1486 653 1569 653 l 1375 653 q 1292 563 1292 653 l 1292 160 q 1069 0 1292 0 l 931 0 l 931 69 q 1014 160 1014 69 l 1014 563 q 931 653 1014 653 l 863 653 q 889 563 889 617 l 889 160 q 667 0 889 0 l 528 0 l 528 69 q 611 160 611 69 l 611 563 q 528 653 611 653 l 417 653 q 333 563 333 653 l 333 160 q 417 69 333 69 l 417 0 l 278 0 q 56 160 56 0 l 56 563 q 278 722 56 722 l 1069 722 z "},"ၯ":{"ha":1500,"x_min":56,"x_max":1444,"o":"m 1083 69 q 1167 160 1167 69 l 1167 563 q 1083 653 1167 653 l 972 653 q 889 563 889 653 l 889 160 q 667 0 889 0 l 278 0 q 56 160 56 0 l 56 563 q 278 722 56 722 l 417 722 l 417 653 q 333 563 333 653 l 333 160 q 417 69 333 69 l 528 69 q 611 160 611 69 l 611 563 q 528 653 611 653 l 528 722 l 667 722 q 750 715 714 722 q 833 722 788 722 l 1222 722 q 1444 563 1444 722 l 1444 160 q 1250 0 1444 10 l 1250 -347 q 1097 -514 1250 -514 l 861 -514 l 861 -444 l 917 -444 q 972 -347 972 -444 l 972 69 l 1083 69 z "},"ၰ":{"ha":1500,"x_min":56,"x_max":1444,"o":"m 972 0 l 833 0 q 750 7 786 0 q 667 0 713 0 l 278 0 q 56 160 56 0 l 56 486 q 293 653 56 578 l 56 653 l 56 722 l 431 722 l 431 653 q 333 486 333 556 l 333 160 q 417 69 333 69 l 528 69 q 611 160 611 69 l 611 563 q 528 653 611 653 l 528 722 l 667 722 q 889 563 889 722 l 889 160 q 972 69 889 69 l 1083 69 q 1167 160 1167 69 l 1167 563 q 1083 653 1167 653 l 1083 722 l 1222 722 q 1444 563 1444 722 l 1444 160 q 1250 0 1444 10 l 1250 -347 q 1097 -514 1250 -514 l 861 -514 l 861 -444 l 917 -444 q 972 -347 972 -444 l 972 0 z "},"ၱ":{"ha":0,"x_min":-889,"x_max":-56,"o":"m -693 1111 q -497 931 -497 1111 q -693 750 -497 750 q -889 931 -889 750 q -693 1111 -889 1111 m -656 931 q -693 1014 -656 1014 q -729 931 -729 1014 q -693 847 -729 847 q -656 931 -656 847 m -251 1111 q -56 931 -56 1111 q -251 750 -56 750 q -447 931 -447 750 q -251 1111 -447 1111 m -215 931 q -251 1014 -215 1014 q -289 931 -289 1014 q -251 847 -289 847 q -215 931 -215 847 z "},"ၲ":{"ha":0,"x_min":-806,"x_max":-139,"o":"m -472 1113 q -556 1024 -556 1113 l -556 850 q -507 819 -556 819 q -458 850 -458 819 q -347 931 -458 931 q -236 850 -236 931 q -414 743 -236 743 l -628 743 q -806 850 -806 743 l -806 1024 q -472 1229 -806 1229 q -139 996 -139 1229 l -172 996 q -472 1113 -194 1113 z "},"ၳ":{"ha":0,"x_min":-839,"x_max":-106,"o":"m -472 1179 l -106 854 l -225 722 l -472 928 l -721 722 l -839 854 l -472 1179 z "},"ၴ":{"ha":0,"x_min":-750,"x_max":-194,"o":"m -449 819 q -393 871 -393 819 l -393 1115 q -426 1164 -393 1156 l -407 1236 l -343 1236 q -194 1115 -194 1236 l -194 871 q -343 750 -194 750 l -601 750 q -750 871 -750 750 l -750 1115 q -601 1236 -750 1236 l -537 1236 l -518 1164 q -551 1115 -551 1156 l -551 871 q -496 819 -551 819 l -449 819 z "},"ၵ":{"ha":944,"x_min":56,"x_max":889,"o":"m 333 236 q 431 69 333 167 l 431 0 l 56 0 l 56 69 l 293 69 q 56 236 56 144 l 56 563 q 278 722 56 722 l 667 722 q 889 563 889 722 l 889 160 q 667 0 889 0 l 528 0 l 528 69 q 611 160 611 69 l 611 563 q 528 653 611 653 l 417 653 q 333 563 333 653 l 333 236 z "},"ၶ":{"ha":944,"x_min":0,"x_max":889,"o":"m 403 208 q 333 160 333 208 q 417 69 333 69 l 528 69 q 585 86 564 69 q 403 208 522 208 m 56 479 q 0 654 0 547 l 0 722 l 69 722 l 69 654 q 85 590 69 617 q 472 722 167 722 q 889 479 889 722 l 889 160 q 667 0 889 0 l 278 0 q 56 160 56 0 q 250 278 56 278 l 403 278 q 611 176 539 278 l 611 479 q 472 611 611 611 q 97 479 125 611 l 56 479 z "},"ၷ":{"ha":944,"x_min":56,"x_max":889,"o":"m 542 250 l 542 167 q 576 88 542 88 q 611 160 611 88 l 611 429 q 542 250 542 354 m 417 653 q 333 563 333 653 l 333 236 q 431 69 333 167 l 431 0 l 56 0 l 56 69 l 293 69 q 56 236 56 144 l 56 563 q 278 722 56 722 l 667 722 q 889 563 889 722 l 889 160 q 667 0 889 0 l 576 0 q 472 167 472 0 l 472 250 q 611 519 472 424 l 611 563 q 528 653 611 653 l 417 653 z "},"ၸ":{"ha":1500,"x_min":56,"x_max":1444,"o":"m 889 160 q 972 69 889 69 l 1083 69 q 1167 160 1167 69 l 1167 563 q 1083 653 1167 653 l 972 653 q 889 563 889 653 l 889 160 m 750 715 q 833 722 786 722 l 1222 722 q 1444 563 1444 722 l 1444 160 q 1222 0 1444 0 l 833 0 q 611 160 611 0 l 611 563 q 528 653 611 653 l 417 653 q 333 563 333 653 l 333 160 q 417 69 333 69 l 417 0 l 278 0 q 56 160 56 0 l 56 563 q 278 722 56 722 l 667 722 q 750 715 713 722 z "},"ၹ":{"ha":1500,"x_min":56,"x_max":1444,"o":"m 889 160 q 972 69 889 69 l 1083 69 q 1167 160 1167 69 l 1167 563 q 1083 653 1167 653 l 972 653 q 889 563 889 653 l 889 160 m 333 429 l 333 160 q 368 88 333 88 q 403 167 403 88 l 403 250 q 333 429 403 354 m 667 722 q 750 715 713 722 q 833 722 786 722 l 1222 722 q 1444 563 1444 722 l 1444 160 q 1222 0 1444 0 l 833 0 q 611 160 611 0 l 611 563 q 528 653 611 653 l 417 653 q 333 563 333 653 l 333 519 q 472 250 472 424 l 472 167 q 368 0 472 0 l 278 0 q 56 160 56 0 l 56 563 q 278 722 56 722 l 667 722 z "},"ၺ":{"ha":1500,"x_min":56,"x_max":1444,"o":"m 611 563 q 528 653 611 653 l 417 653 q 333 563 333 653 l 333 160 q 417 69 333 69 l 417 0 l 278 0 q 56 160 56 0 l 56 563 q 278 722 56 722 l 667 722 q 889 563 889 722 l 889 160 q 972 69 889 69 l 1083 69 q 1167 160 1167 69 l 1167 563 q 1083 653 1167 653 l 1083 722 l 1222 722 q 1444 563 1444 722 l 1444 160 q 1222 0 1444 0 l 889 0 l 889 -347 q 944 -444 889 -444 l 1000 -444 l 1000 -514 l 764 -514 q 611 -347 611 -514 l 611 563 z "},"ၻ":{"ha":1500,"x_min":56,"x_max":1444,"o":"m 611 563 q 528 653 611 653 l 417 653 q 333 563 333 653 l 333 160 q 417 69 333 69 l 528 69 q 611 160 611 69 l 611 563 m 1167 429 q 1097 250 1097 354 l 1097 167 q 1132 88 1097 88 q 1167 160 1167 88 l 1167 429 m 1222 722 q 1444 563 1444 722 l 1444 160 q 1222 0 1444 0 l 1132 0 q 1028 167 1028 0 l 1028 250 q 1167 519 1028 424 l 1167 563 q 1083 653 1167 653 l 972 653 q 889 563 889 653 l 889 160 q 667 0 889 0 l 278 0 q 56 160 56 0 l 56 563 q 278 722 56 722 l 667 722 q 750 715 714 722 q 833 722 788 722 l 1222 722 z "},"ၼ":{"ha":1500,"x_min":56,"x_max":1444,"o":"m 915 86 q 972 69 936 69 l 1083 69 q 1167 160 1167 69 q 1097 208 1167 208 q 915 86 978 208 m 403 208 q 333 160 333 208 q 417 69 333 69 l 528 69 q 585 86 564 69 q 403 208 522 208 m 889 176 q 1097 278 961 278 l 1250 278 q 1444 160 1444 278 q 1222 0 1444 0 l 833 0 q 750 7 788 0 q 667 0 714 0 l 278 0 q 56 160 56 0 q 250 278 56 278 l 403 278 q 611 176 539 278 l 611 479 q 472 611 611 611 q 97 479 125 611 l 56 479 q 472 722 56 722 q 750 679 649 722 q 1028 722 851 722 q 1444 479 1444 722 l 1403 479 q 1028 611 1375 611 q 889 479 889 611 l 889 176 z "},"ၽ":{"ha":1500,"x_min":56,"x_max":1444,"o":"m 915 86 q 972 69 936 69 l 1083 69 q 1167 160 1167 69 q 1097 208 1167 208 q 915 86 978 208 m 750 7 q 667 0 713 0 l 278 0 q 56 160 56 0 l 56 486 q 293 653 56 578 l 56 653 l 56 722 l 431 722 l 431 653 q 333 486 333 556 l 333 160 q 417 69 333 69 l 528 69 q 611 160 611 69 l 611 479 q 1028 722 611 722 q 1444 479 1444 722 l 1403 479 q 1028 611 1375 611 q 889 479 889 611 l 889 176 q 1097 278 961 278 l 1250 278 q 1444 160 1444 278 q 1222 0 1444 0 l 833 0 q 750 7 786 0 z "},"ၾ":{"ha":1500,"x_min":56,"x_max":1444,"o":"m 915 86 q 972 69 936 69 l 1083 69 q 1167 160 1167 69 q 1097 208 1167 208 q 915 86 978 208 m 972 0 l 833 0 q 750 7 786 0 q 667 0 713 0 l 278 0 q 56 160 56 0 l 56 486 q 293 653 56 578 l 56 653 l 56 722 l 431 722 l 431 653 q 333 486 333 556 l 333 160 q 417 69 333 69 l 528 69 q 611 160 611 69 l 611 479 q 1028 722 611 722 q 1444 479 1444 722 l 1403 479 q 1028 611 1375 611 q 889 479 889 611 l 889 176 q 1097 278 961 278 l 1250 278 q 1444 160 1444 278 q 1250 0 1444 10 l 1250 -347 q 1097 -514 1250 -514 l 861 -514 l 861 -444 l 917 -444 q 972 -347 972 -444 l 972 0 z "},"ၿ":{"ha":944,"x_min":56,"x_max":889,"o":"m 368 722 q 472 556 472 722 l 472 472 q 333 203 472 299 l 333 160 q 417 69 333 69 l 528 69 q 611 160 611 69 l 611 563 q 528 653 611 653 l 528 722 l 667 722 q 889 563 889 722 l 889 160 q 667 0 889 0 l 278 0 q 56 160 56 0 l 56 563 q 278 722 56 722 l 368 722 m 333 293 q 403 472 403 368 l 403 556 q 368 635 403 635 q 333 563 333 635 l 333 293 z "},"ႀ":{"ha":1500,"x_min":56,"x_max":1444,"o":"m 403 208 q 333 160 333 208 q 417 69 333 69 l 528 69 q 585 86 564 69 q 403 208 522 208 m 889 160 q 972 69 889 69 l 1083 69 q 1167 160 1167 69 l 1167 563 q 1083 653 1167 653 l 1083 722 l 1222 722 q 1444 563 1444 722 l 1444 160 q 1222 0 1444 0 l 833 0 q 750 7 788 0 q 667 0 714 0 l 278 0 q 56 160 56 0 q 250 278 56 278 l 403 278 q 611 176 539 278 l 611 479 q 472 611 611 611 q 97 479 125 611 l 56 479 q 472 722 56 722 q 889 479 889 722 l 889 160 z "},"ႁ":{"ha":944,"x_min":56,"x_max":889,"o":"m 194 7 q 56 160 56 33 l 56 563 q 278 722 56 722 l 667 722 q 889 563 889 722 l 889 160 q 667 0 889 0 l 528 0 l 528 69 q 611 160 611 69 l 611 563 q 528 653 611 653 l 417 653 q 333 563 333 653 l 333 160 q 417 69 333 69 l 417 -347 q 278 -514 417 -514 l 83 -514 l 83 -444 l 139 -444 q 194 -347 194 -444 l 194 7 z "},"ႂ":{"ha":0,"x_min":-750,"x_max":-194,"o":"m -496 -89 q -551 -149 -551 -89 l -551 -393 q -496 -453 -551 -453 l -449 -453 q -393 -393 -393 -453 l -393 -271 l -194 -271 l -194 -393 q -343 -514 -194 -514 l -601 -514 q -750 -393 -750 -514 l -750 -149 q -601 -28 -750 -28 l -343 -28 q -194 -149 -194 -28 l -393 -149 q -449 -89 -393 -89 l -496 -89 z "},"ႃ":{"ha":389,"x_min":-56,"x_max":444,"o":"m 56 653 l -56 653 l -56 722 l 333 722 l 333 -444 l 444 -444 l 444 -514 l 56 -514 l 56 653 z "},"ႄ":{"ha":944,"x_min":56,"x_max":889,"o":"m 472 611 q 333 472 333 611 q 417 396 333 396 l 528 396 l 528 326 l 417 326 q 333 222 333 326 l 333 160 q 417 69 333 69 l 528 69 q 611 160 611 69 l 611 278 l 889 278 l 889 160 q 667 0 889 0 l 278 0 q 56 160 56 0 l 56 222 q 161 361 56 321 q 56 472 56 401 q 472 722 56 722 q 889 479 889 722 l 847 479 q 472 611 819 611 z "},"ႅ":{"ha":0,"x_min":-750,"x_max":-194,"o":"m -551 958 l -551 871 q -496 819 -551 819 l -449 819 q -393 871 -393 819 l -194 871 q -343 750 -194 750 l -601 750 q -750 871 -750 750 l -750 932 l -639 993 l -750 1054 l -750 1115 q -601 1236 -750 1236 l -343 1236 q -194 1115 -194 1236 l -393 1115 q -449 1167 -393 1167 l -496 1167 q -551 1115 -551 1167 l -551 1028 l -333 1028 l -333 958 l -551 958 z "},"ႆ":{"ha":0,"x_min":-715,"x_max":-340,"o":"m -514 1056 q -549 1153 -514 1153 q -583 1056 -583 1153 q -549 958 -583 958 q -514 1056 -514 958 m -340 1011 q -550 710 -340 768 l -669 804 q -571 918 -603 833 q -715 1056 -715 928 q -549 1222 -715 1222 q -340 1056 -340 1222 l -340 1011 z "},"ႇ":{"ha":528,"x_min":56,"x_max":472,"o":"m 257 139 q 222 236 257 236 q 188 139 188 236 q 222 42 188 42 q 257 139 257 42 m 472 94 q 221 -207 472 -149 l 101 -112 q 200 1 168 -83 q 56 139 56 11 q 250 306 56 306 q 472 139 472 306 l 472 94 z "},"ႈ":{"ha":528,"x_min":56,"x_max":472,"o":"m 264 722 q 472 583 472 722 q 264 444 472 444 q 56 583 56 444 q 264 722 56 722 m 299 583 q 264 653 299 653 q 229 583 229 653 q 264 514 229 514 q 299 583 299 514 m 257 139 q 222 236 257 236 q 188 139 188 236 q 222 42 188 42 q 257 139 257 42 m 472 94 q 221 -207 472 -149 l 101 -112 q 200 1 168 -83 q 56 139 56 11 q 250 306 56 306 q 472 139 472 306 l 472 94 z "},"ႉ":{"ha":528,"x_min":56,"x_max":472,"o":"m 264 278 q 472 139 472 278 q 264 0 472 0 q 56 139 56 0 q 264 278 56 278 m 299 139 q 264 208 299 208 q 229 139 229 208 q 264 69 229 69 q 299 139 299 69 z "},"ႊ":{"ha":624,"x_min":56,"x_max":568,"o":"m 222 514 q 257 583 257 514 q 222 653 257 653 q 188 583 188 653 q 222 514 188 514 m 222 390 q 56 568 56 390 q 222 724 56 724 q 360 607 350 724 q 474 686 444 633 l 568 590 q 267 390 510 390 l 222 390 m 222 125 q 257 194 257 125 q 222 264 257 264 q 188 194 188 264 q 222 125 188 125 m 222 1 q 56 179 56 1 q 222 335 56 335 q 360 218 350 335 q 474 297 444 244 l 568 201 q 267 1 510 1 l 222 1 z "},"ႋ":{"ha":528,"x_min":56,"x_max":472,"o":"m 264 500 q 472 361 472 500 q 264 222 472 222 q 56 361 56 222 q 264 500 56 500 m 299 361 q 264 431 299 431 q 229 361 229 431 q 264 292 229 292 q 299 361 299 292 z "},"ႌ":{"ha":1000,"x_min":56,"x_max":944,"o":"m 736 500 q 944 361 944 500 q 736 222 944 222 q 528 361 528 222 q 736 500 528 500 m 771 361 q 736 431 771 431 q 701 361 701 431 q 736 292 701 292 q 771 361 771 292 m 264 500 q 472 361 472 500 q 264 222 472 222 q 56 361 56 222 q 264 500 56 500 m 299 361 q 264 431 299 431 q 229 361 229 431 q 264 292 229 292 q 299 361 299 292 z "},"ႍ":{"ha":0,"x_min":-729,"x_max":-104,"o":"m -104 -112 l -104 -251 l -729 -251 l -729 -112 l -104 -112 z "},"ႎ":{"ha":944,"x_min":56,"x_max":889,"o":"m 611 436 q 472 403 554 403 q 333 436 390 403 l 333 160 q 417 69 333 69 l 528 69 q 611 160 611 69 l 611 436 m 333 506 q 472 472 390 472 q 611 506 554 472 l 611 563 q 528 653 611 653 l 417 653 q 333 563 333 653 l 333 506 m 56 563 q 278 722 56 722 l 667 722 q 889 563 889 722 l 889 160 q 667 0 889 0 l 278 0 q 56 160 56 0 l 56 563 z "},"ႏ":{"ha":528,"x_min":56,"x_max":472,"o":"m 264 722 q 472 583 472 722 q 264 444 472 444 q 56 583 56 444 q 264 722 56 722 m 229 583 q 264 514 229 514 q 299 583 299 514 q 264 653 299 653 q 229 583 229 653 m 271 139 q 306 69 271 69 q 340 139 340 69 q 306 208 340 208 q 271 139 271 208 m 56 139 q 278 306 56 306 q 472 139 472 306 q 328 1 472 11 q 426 -112 360 -83 l 307 -207 q 56 94 56 -149 l 56 139 z "},"႐":{"ha":944,"x_min":56,"x_max":889,"o":"m 417 653 q 333 563 333 653 l 333 160 q 417 69 333 69 l 528 69 q 611 160 611 69 l 611 563 q 528 653 611 653 l 417 653 m 278 0 q 56 160 56 0 l 56 563 q 278 722 56 722 l 667 722 q 889 563 889 722 l 889 160 q 667 0 889 0 l 278 0 z "},"႑":{"ha":583,"x_min":56,"x_max":528,"o":"m 396 179 l 492 236 l 528 93 l 372 0 l 188 0 l 188 543 l 92 486 l 56 629 l 211 722 l 396 722 l 396 179 z "},"႒":{"ha":986,"x_min":56,"x_max":931,"o":"m 57 403 l 56 403 l 56 778 l 333 778 l 333 717 q 361 722 347 719 l 694 722 q 931 361 931 681 q 715 23 931 175 q 500 -278 500 -129 l 292 -278 q 472 58 292 -94 q 653 361 653 210 q 583 611 653 583 l 403 611 q 333 361 333 583 l 56 361 q 57 403 56 382 z "},"႓":{"ha":785,"x_min":56,"x_max":729,"o":"m 464 528 l 231 0 l 56 97 l 482 1043 l 657 946 l 553 719 q 729 468 729 700 l 729 0 l 521 0 l 521 468 q 486 528 521 528 l 464 528 z "},"႔":{"ha":831,"x_min":56,"x_max":775,"o":"m 367 722 l 643 722 l 643 179 l 739 236 l 775 93 l 619 0 l 435 0 l 435 481 l 231 0 l 56 28 l 367 722 z "},"႕":{"ha":806,"x_min":56,"x_max":819,"o":"m 542 556 l 438 556 q 264 292 264 556 q 403 111 264 111 q 542 361 542 111 l 542 556 m 750 653 l 819 653 l 819 556 l 750 556 l 750 361 q 403 0 750 0 q 56 292 56 0 q 438 653 56 653 l 542 653 l 542 972 l 750 972 l 750 653 z "},"႖":{"ha":806,"x_min":56,"x_max":819,"o":"m 542 361 q 403 611 542 611 q 264 431 264 611 q 438 181 264 181 l 542 181 l 542 361 m 750 -250 l 542 -250 l 542 69 l 438 69 q 56 431 56 69 q 403 722 56 722 q 750 361 750 722 l 750 181 l 819 181 l 819 69 l 750 69 l 750 -250 z "},"႗":{"ha":667,"x_min":56,"x_max":611,"o":"m 343 111 l 611 111 l 611 0 l 56 0 l 56 43 l 326 611 l 56 611 l 56 722 l 611 722 l 611 676 l 343 111 z "},"႘":{"ha":944,"x_min":56,"x_max":889,"o":"m 825 688 q 889 563 889 647 l 889 160 q 667 0 889 0 l 278 0 q 56 160 56 0 l 56 563 q 119 688 56 647 q 56 813 56 728 l 56 1014 l 333 1014 l 333 813 q 417 722 333 722 l 528 722 q 611 813 611 722 l 611 1014 l 889 1014 l 889 813 q 825 688 889 728 m 417 653 q 333 563 333 653 l 333 160 q 417 69 333 69 l 528 69 q 611 160 611 69 l 611 563 q 528 653 611 653 l 417 653 z "},"႙":{"ha":944,"x_min":56,"x_max":889,"o":"m 825 326 q 889 201 889 286 l 889 0 l 611 0 l 611 201 q 528 292 611 292 l 417 292 q 333 201 333 292 l 333 0 l 56 0 l 56 201 q 119 326 56 286 q 56 451 56 367 l 56 854 q 278 1014 56 1014 l 667 1014 q 889 854 889 1014 l 889 451 q 825 326 889 367 m 528 361 q 611 451 611 361 l 611 854 q 528 944 611 944 l 417 944 q 333 854 333 944 l 333 451 q 417 361 333 361 l 528 361 z "},"ႚ":{"ha":528,"x_min":56,"x_max":472,"o":"m 264 722 q 472 583 472 722 q 264 444 472 444 q 56 583 56 444 q 264 722 56 722 m 299 583 q 264 653 299 653 q 229 583 229 653 q 264 514 229 514 q 299 583 299 514 z "},"ႛ":{"ha":528,"x_min":56,"x_max":472,"o":"m 257 556 q 222 625 257 625 q 188 556 188 625 q 222 486 188 486 q 257 556 257 486 m 472 511 q 221 210 472 268 l 101 304 q 200 418 168 333 q 56 556 56 428 q 250 722 56 722 q 472 556 472 722 l 472 511 z "},"ႜ":{"ha":624,"x_min":56,"x_max":568,"o":"m 222 211 q 188 142 188 211 q 222 72 188 72 q 257 142 257 72 q 222 211 257 211 m 267 335 q 568 135 510 335 l 474 39 q 360 118 444 92 q 222 1 350 1 q 56 157 56 1 q 222 335 56 335 l 267 335 m 222 600 q 188 531 188 600 q 222 461 188 461 q 257 531 257 461 q 222 600 257 600 m 267 724 q 568 524 510 724 l 474 428 q 360 507 444 481 q 222 390 350 390 q 56 546 56 390 q 222 724 56 724 l 267 724 z "},"ႝ":{"ha":0,"x_min":-736,"x_max":-56,"o":"m -396 958 q -458 760 -458 958 l -736 760 q -396 1028 -736 1028 q -56 760 -56 1028 l -56 556 l -333 556 l -333 760 q -396 958 -333 958 z "},"႞":{"ha":396,"x_min":-56,"x_max":451,"o":"m 56 653 l -56 653 l -56 722 l 333 722 l 333 -444 l 444 -444 l 444 -514 l 56 -514 l 56 653 m 201 1028 q 451 889 451 1028 q 201 750 451 750 q -49 889 -49 750 q 201 1028 -49 1028 m 243 889 q 201 958 243 958 q 160 889 160 958 q 201 819 160 819 q 243 889 243 819 z "},"႟":{"ha":1347,"x_min":56,"x_max":1278,"o":"m 417 653 q 333 563 333 653 l 333 160 q 417 69 333 69 l 417 0 l 278 0 q 56 160 56 0 l 56 563 q 278 722 56 722 l 667 722 q 889 563 889 722 l 889 -354 q 944 -444 889 -444 q 1000 -354 1000 -444 l 1000 563 q 875 750 1000 750 l 719 750 q 542 857 542 750 l 542 1024 q 875 1229 542 1229 q 1208 996 1208 1229 l 1175 996 q 875 1113 1153 1113 q 792 1024 792 1113 l 792 857 q 840 819 792 819 l 875 819 q 1278 563 1278 819 l 1278 -354 q 1056 -514 1278 -514 l 833 -514 q 611 -354 611 -514 l 611 563 q 528 653 611 653 l 417 653 z "},"ꩠ":{"ha":1500,"x_min":56,"x_max":1444,"o":"m 1097 250 l 1097 167 q 1132 88 1097 88 q 1167 160 1167 88 l 1167 429 q 1097 250 1097 354 m 972 653 q 889 563 889 653 l 889 160 q 667 0 889 0 l 528 0 l 528 69 q 611 160 611 69 l 611 563 q 528 653 611 653 l 417 653 q 333 563 333 653 l 333 160 q 417 69 333 69 l 417 0 l 278 0 q 56 160 56 0 l 56 563 q 278 722 56 722 l 667 722 q 750 715 713 722 q 833 722 786 722 l 1222 722 q 1444 563 1444 722 l 1444 160 q 1222 0 1444 0 l 1132 0 q 1028 167 1028 0 l 1028 250 q 1167 519 1028 424 l 1167 563 q 1083 653 1167 653 l 972 653 z "},"ꩡ":{"ha":1500,"x_min":56,"x_max":1444,"o":"m 889 563 l 889 160 q 972 69 889 69 l 1083 69 q 1167 160 1167 69 l 1167 563 q 1083 653 1167 653 l 972 653 q 889 563 889 653 m 611 563 q 528 653 611 653 l 417 653 q 333 563 333 653 l 333 236 q 431 69 333 167 l 431 0 l 56 0 l 56 69 l 293 69 q 56 236 56 144 l 56 563 q 278 722 56 722 l 667 722 q 750 715 713 722 q 833 722 786 722 l 1222 722 q 1444 563 1444 722 l 1444 160 q 1222 0 1444 0 l 833 0 q 750 7 786 0 q 667 0 713 0 l 528 0 l 528 69 q 611 160 611 69 l 611 563 z "},"ꩢ":{"ha":1167,"x_min":56,"x_max":1111,"o":"m 479 326 l 556 326 l 556 160 q 639 69 556 69 l 750 69 q 833 160 833 69 l 833 563 q 750 653 833 653 l 750 722 l 889 722 q 1111 563 1111 722 l 1111 160 q 889 0 1111 0 l 500 0 q 417 142 422 0 l 260 0 l 56 0 l 56 722 l 333 722 l 333 203 l 479 326 z "},"ꩣ":{"ha":1500,"x_min":56,"x_max":1444,"o":"m 889 563 l 889 160 q 972 69 889 69 l 1083 69 q 1167 160 1167 69 l 1167 563 q 1083 653 1167 653 l 972 653 q 889 563 889 653 m 611 429 q 542 250 542 354 l 542 167 q 576 88 542 88 q 611 160 611 88 l 611 429 m 750 7 q 667 0 713 0 l 576 0 q 472 167 472 0 l 472 250 q 611 519 472 424 l 611 563 q 528 653 611 653 l 417 653 q 333 563 333 653 l 333 236 q 431 69 333 167 l 431 0 l 56 0 l 56 69 l 293 69 q 56 236 56 144 l 56 563 q 278 722 56 722 l 667 722 q 750 715 713 722 q 833 722 786 722 l 1222 722 q 1444 563 1444 722 l 1444 160 q 1222 0 1444 0 l 833 0 q 750 7 786 0 z "},"ꩤ":{"ha":1500,"x_min":56,"x_max":1444,"o":"m 889 563 l 889 160 q 972 69 889 69 l 1083 69 q 1167 160 1167 69 l 1167 563 q 1083 653 1167 653 l 972 653 q 889 563 889 653 m 750 7 q 667 0 713 0 l 278 0 q 56 160 56 0 l 56 563 q 278 722 56 722 l 417 722 l 417 653 q 333 563 333 653 l 333 160 q 417 69 333 69 l 528 69 q 611 160 611 69 l 611 563 q 528 653 611 653 l 528 722 l 667 722 q 750 715 713 722 q 833 722 786 722 l 1222 722 q 1444 563 1444 722 l 1444 160 q 1222 0 1444 0 l 833 0 q 750 7 786 0 z "},"ꩥ":{"ha":1500,"x_min":56,"x_max":1444,"o":"m 611 563 q 833 722 611 722 l 1222 722 q 1444 563 1444 722 l 1444 160 q 1222 0 1444 0 l 1083 0 l 1083 69 q 1167 160 1167 69 l 1167 563 q 1083 653 1167 653 l 972 653 q 889 563 889 653 l 889 -347 q 736 -514 889 -514 l 500 -514 l 500 -444 l 556 -444 q 611 -347 611 -444 l 611 0 l 278 0 q 56 160 56 0 l 56 563 q 278 722 56 722 l 417 722 l 417 653 q 333 563 333 653 l 333 160 q 417 69 333 69 l 528 69 q 611 160 611 69 l 611 563 z "},"ꩦ":{"ha":1500,"x_min":56,"x_max":1444,"o":"m 472 431 q 542 361 542 431 q 472 292 542 292 q 403 361 403 292 q 472 431 403 431 m 611 563 q 528 653 611 653 l 417 653 q 333 563 333 653 l 333 160 q 417 69 333 69 l 528 69 q 611 160 611 69 l 611 563 m 750 715 q 833 722 788 722 l 1222 722 q 1444 563 1444 722 l 1444 160 q 1222 0 1444 0 l 1083 0 l 1083 69 q 1167 160 1167 69 l 1167 563 q 1083 653 1167 653 l 972 653 q 889 563 889 653 l 889 160 q 667 0 889 0 l 278 0 q 56 160 56 0 l 56 563 q 278 722 56 722 l 667 722 q 750 715 714 722 z "},"ꩧ":{"ha":1500,"x_min":56,"x_max":1444,"o":"m 472 431 q 542 361 542 431 q 472 292 542 292 q 403 361 403 292 q 472 431 403 431 m 611 160 l 611 563 q 528 653 611 653 l 417 653 q 333 563 333 653 l 333 160 q 417 69 333 69 l 528 69 q 611 160 611 69 m 889 160 q 972 69 889 69 l 1083 69 q 1167 160 1167 69 l 1167 563 q 1083 653 1167 653 l 972 653 q 889 563 889 653 l 889 160 m 750 715 q 833 722 788 722 l 1222 722 q 1444 563 1444 722 l 1444 160 q 1222 0 1444 0 l 833 0 q 750 7 788 0 q 667 0 714 0 l 278 0 q 56 160 56 0 l 56 563 q 278 722 56 722 l 667 722 q 750 715 714 722 z "},"ꩨ":{"ha":1500,"x_min":56,"x_max":1444,"o":"m 472 431 q 542 361 542 431 q 472 292 542 292 q 403 361 403 292 q 472 431 403 431 m 1097 250 l 1097 167 q 1132 88 1097 88 q 1167 160 1167 88 l 1167 429 q 1097 250 1097 354 m 972 653 q 889 563 889 653 l 889 160 q 667 0 889 0 l 278 0 q 56 160 56 0 l 56 563 q 278 722 56 722 l 667 722 q 750 715 713 722 q 833 722 786 722 l 1222 722 q 1444 563 1444 722 l 1444 160 q 1222 0 1444 0 l 1132 0 q 1028 167 1028 0 l 1028 250 q 1167 519 1028 424 l 1167 563 q 1083 653 1167 653 l 972 653 m 528 69 q 611 160 611 69 l 611 563 q 528 653 611 653 l 417 653 q 333 563 333 653 l 333 160 q 417 69 333 69 l 528 69 z "},"ꩩ":{"ha":1500,"x_min":56,"x_max":1444,"o":"m 472 431 q 542 361 542 431 q 472 292 542 292 q 403 361 403 292 q 472 431 403 431 m 611 160 l 611 563 q 528 653 611 653 l 417 653 q 333 563 333 653 l 333 160 q 417 69 333 69 l 528 69 q 611 160 611 69 m 1101 71 q 1167 160 1167 81 l 1167 563 q 1083 653 1167 653 l 972 653 q 889 563 889 653 l 889 250 q 1101 71 1058 224 m 889 179 l 889 160 q 972 69 889 69 l 1026 69 q 889 179 990 157 m 750 715 q 833 722 788 722 l 1222 722 q 1444 563 1444 722 l 1444 160 q 1222 0 1444 0 l 833 0 q 750 7 788 0 q 667 0 714 0 l 278 0 q 56 160 56 0 l 56 563 q 278 722 56 722 l 667 722 q 750 715 714 722 z "},"ꩪ":{"ha":1500,"x_min":56,"x_max":1444,"o":"m 611 160 l 611 563 q 528 653 611 653 l 417 653 q 333 563 333 653 l 333 160 q 417 69 333 69 l 528 69 q 611 160 611 69 m 1101 71 q 1167 160 1167 81 l 1167 563 q 1083 653 1167 653 l 972 653 q 889 563 889 653 l 889 250 q 1101 71 1058 224 m 889 179 l 889 160 q 972 69 889 69 l 1026 69 q 889 179 990 157 m 750 715 q 833 722 788 722 l 1222 722 q 1444 563 1444 722 l 1444 160 q 1222 0 1444 0 l 833 0 q 750 7 788 0 q 667 0 714 0 l 278 0 q 56 160 56 0 l 56 563 q 278 722 56 722 l 667 722 q 750 715 714 722 z "},"ꩫ":{"ha":944,"x_min":56,"x_max":889,"o":"m 333 429 l 333 160 q 368 88 333 88 q 403 167 403 88 l 403 250 q 333 429 403 354 m 94 668 q 56 819 56 732 l 125 819 q 157 706 125 753 q 278 722 206 722 l 667 722 q 889 563 889 722 l 889 160 q 667 0 889 0 l 528 0 l 528 69 q 611 160 611 69 l 611 563 q 528 653 611 653 l 417 653 q 333 563 333 653 l 333 519 q 472 250 472 424 l 472 167 q 368 0 472 0 l 278 0 q 56 160 56 0 l 56 563 q 94 668 56 629 z "},"ꩬ":{"ha":1500,"x_min":56,"x_max":1444,"o":"m 1014 160 q 1090 69 1014 69 q 1167 160 1167 69 l 1167 563 q 1083 653 1167 653 l 1083 722 l 1222 722 q 1444 563 1444 722 l 1444 160 q 1222 0 1444 0 l 958 0 q 792 160 792 0 l 792 563 q 799 619 792 593 q 750 653 783 653 q 701 619 717 653 q 708 563 708 593 l 708 160 q 542 0 708 0 l 278 0 q 56 160 56 0 l 56 563 q 278 722 56 722 l 417 722 l 417 653 q 333 563 333 653 l 333 160 q 410 69 333 69 q 486 160 486 69 l 486 593 q 609 699 535 676 q 750 722 683 722 q 891 699 817 722 q 1014 593 965 676 l 1014 160 z "},"ꩭ":{"ha":1097,"x_min":-236,"x_max":1042,"o":"m 310 706 q 431 722 358 722 l 819 722 q 1042 563 1042 722 l 1042 160 q 819 0 1042 0 l 681 0 l 681 69 q 764 160 764 69 l 764 563 q 681 653 764 653 l 569 653 q 486 563 486 653 l 486 -354 q 264 -514 486 -514 l -14 -514 q -236 -354 -236 -514 l -236 -181 l 42 -181 l 42 -354 q 125 -444 42 -444 q 208 -354 208 -444 l 208 361 l 194 361 q -28 542 -28 361 q 194 722 -28 722 q 310 706 263 722 m 236 542 q 194 625 236 625 q 153 542 153 625 q 194 458 153 458 q 236 542 236 458 z "},"ꩮ":{"ha":1500,"x_min":56,"x_max":1444,"o":"m 333 429 l 333 160 q 368 88 333 88 q 403 167 403 88 l 403 250 q 333 429 403 354 m 667 722 q 889 563 889 722 l 889 160 q 972 69 889 69 l 1083 69 q 1167 160 1167 69 l 1167 563 q 1083 653 1167 653 l 1083 722 l 1222 722 q 1444 563 1444 722 l 1444 160 q 1222 0 1444 0 l 833 0 q 611 160 611 0 l 611 563 q 528 653 611 653 l 417 653 q 333 563 333 653 l 333 519 q 472 250 472 424 l 472 167 q 368 0 472 0 l 278 0 q 56 160 56 0 l 56 563 q 278 722 56 722 l 667 722 z "},"ꩯ":{"ha":1333,"x_min":56,"x_max":1278,"o":"m 722 563 l 722 160 q 806 69 722 69 l 917 69 q 1000 160 1000 69 l 1000 563 q 917 653 1000 653 l 806 653 q 722 563 722 653 m 444 493 l 333 589 l 333 0 l 56 0 l 56 722 l 329 722 l 451 613 q 667 722 482 722 l 1056 722 q 1278 563 1278 722 l 1278 160 q 1056 0 1278 0 l 667 0 q 444 160 444 0 l 444 493 z "},"ꩰ":{"ha":0,"x_min":-619,"x_max":-212,"o":"m -415 708 q -564 665 -521 708 l -619 783 q -415 847 -558 847 q -212 783 -274 847 l -268 665 q -415 708 -311 708 m -415 903 q -564 860 -521 903 l -619 978 q -415 1042 -558 1042 q -212 978 -274 1042 l -268 860 q -415 903 -311 903 z "},"ꩱ":{"ha":1500,"x_min":56,"x_max":1444,"o":"m 333 429 l 333 160 q 368 88 333 88 q 403 167 403 88 l 403 250 q 333 429 403 354 m 611 563 q 528 653 611 653 l 417 653 q 333 563 333 653 l 333 519 q 472 250 472 424 l 472 167 q 368 0 472 0 l 278 0 q 56 160 56 0 l 56 563 q 278 722 56 722 l 667 722 q 750 715 713 722 q 833 722 786 722 l 1222 722 q 1444 563 1444 722 l 1444 160 q 1222 0 1444 0 l 1083 0 l 1083 69 q 1167 160 1167 69 l 1167 563 q 1083 653 1167 653 l 972 653 q 889 563 889 653 l 889 160 q 667 0 889 0 l 528 0 l 528 69 q 611 160 611 69 l 611 563 z "},"ꩲ":{"ha":1500,"x_min":-14,"x_max":1444,"o":"m 889 563 l 889 160 q 972 69 889 69 l 1083 69 q 1167 160 1167 69 l 1167 563 q 1083 653 1167 653 l 972 653 q 889 563 889 653 m 56 326 l 56 563 q 278 722 56 722 l 667 722 q 750 715 713 722 q 833 722 786 722 l 1222 722 q 1444 563 1444 722 l 1444 160 q 1222 0 1444 0 l 833 0 q 750 7 786 0 q 667 0 713 0 l 528 0 l 528 69 q 611 160 611 69 l 611 563 q 528 653 611 653 l 417 653 q 333 563 333 653 l 333 340 q 431 181 431 300 q 208 0 431 0 q -14 181 -14 0 q 56 326 -14 282 m 250 181 q 208 264 250 264 q 167 181 167 264 q 208 97 167 97 q 250 181 250 97 z "},"ꩳ":{"ha":1097,"x_min":56,"x_max":1042,"o":"m 333 450 l 333 0 l 56 0 l 56 722 l 331 722 q 635 69 465 69 l 681 69 q 764 160 764 69 l 764 563 q 681 653 764 653 l 681 722 l 819 722 q 1042 563 1042 722 l 1042 160 q 819 0 1042 0 l 635 0 q 333 450 446 0 z "},"ꩴ":{"ha":1333,"x_min":56,"x_max":1278,"o":"m 542 69 q 611 160 611 78 l 611 563 q 576 635 611 635 q 542 556 542 635 l 542 69 m 472 -375 q 403 -306 472 -306 q 333 -375 333 -306 q 403 -444 333 -444 q 472 -375 472 -444 m 542 -307 q 776 -375 636 -375 l 874 -375 q 1000 -281 1000 -375 l 1000 563 q 875 750 1000 750 l 719 750 q 542 857 542 750 l 542 1024 q 875 1229 542 1229 q 1208 996 1208 1229 l 1175 996 q 875 1113 1153 1113 q 792 1024 792 1113 l 792 857 q 840 819 792 819 l 875 819 q 1278 563 1278 819 l 1278 -281 q 874 -514 1278 -514 l 776 -514 q 538 -422 632 -514 q 403 -514 515 -514 q 264 -375 264 -514 q 403 -222 264 -222 q 472 -235 443 -222 l 472 -111 l 542 -115 l 542 -307 m 472 0 l 278 0 q 56 160 56 0 l 56 563 q 278 722 56 722 l 417 722 l 417 653 q 333 563 333 653 l 333 160 q 417 69 333 69 l 472 69 l 472 556 q 576 722 472 722 l 667 722 q 889 563 889 722 l 889 160 q 667 0 889 0 l 542 0 l 542 -115 l 472 -111 l 472 0 z "},"ꩵ":{"ha":1889,"x_min":56,"x_max":1833,"o":"m 1083 -375 q 1014 -306 1083 -306 q 944 -375 944 -306 q 1014 -444 944 -444 q 1083 -375 1083 -444 m 1083 69 q 1167 160 1167 69 l 1167 563 q 1083 653 1167 653 l 972 653 q 889 563 889 653 l 889 160 q 667 0 889 0 l 528 0 l 528 69 q 611 160 611 69 l 611 563 q 528 653 611 653 l 417 653 q 333 563 333 653 l 333 236 q 431 69 333 167 l 431 0 l 56 0 l 56 69 l 293 69 q 56 236 56 144 l 56 563 q 278 722 56 722 l 667 722 q 750 715 713 722 q 833 722 786 722 l 1222 722 q 1444 563 1444 722 l 1444 160 q 1222 0 1444 0 l 1153 0 l 1153 -307 q 1332 -375 1247 -375 l 1429 -375 q 1556 -281 1556 -375 l 1556 563 q 1431 750 1556 750 l 1275 750 q 1097 857 1097 750 l 1097 1024 q 1431 1229 1097 1229 q 1764 996 1764 1229 l 1731 996 q 1431 1113 1708 1113 q 1347 1024 1347 1113 l 1347 857 q 1396 819 1347 819 l 1431 819 q 1833 563 1833 819 l 1833 -281 q 1429 -514 1833 -514 l 1332 -514 q 1149 -422 1243 -514 q 1014 -514 1126 -514 q 875 -375 875 -514 q 1014 -222 875 -222 q 1083 -235 1054 -222 l 1083 69 z "},"ꩶ":{"ha":1486,"x_min":-236,"x_max":1431,"o":"m 236 542 q 194 625 236 625 q 153 542 153 625 q 194 458 153 458 q 236 542 236 458 m 736 -375 q 667 -306 736 -306 q 597 -375 597 -306 q 667 -444 597 -444 q 736 -375 736 -444 m 736 0 l 681 0 l 681 69 q 764 160 764 69 l 764 563 q 681 653 764 653 l 569 653 q 486 563 486 653 l 486 -354 q 264 -514 486 -514 l -14 -514 q -236 -354 -236 -514 l -236 -181 l 42 -181 l 42 -354 q 125 -444 42 -444 q 208 -354 208 -444 l 208 361 l 194 361 q -28 542 -28 361 q 194 722 -28 722 q 310 706 263 722 q 431 722 358 722 l 819 722 q 1042 563 1042 722 l 1042 160 q 819 0 1042 0 l 806 0 l 806 -307 q 985 -375 900 -375 l 1026 -375 q 1153 -281 1153 -375 l 1153 563 q 1028 750 1153 750 l 872 750 q 694 857 694 750 l 694 1024 q 1028 1229 694 1229 q 1361 996 1361 1229 l 1328 996 q 1028 1113 1306 1113 q 944 1024 944 1113 l 944 857 q 993 819 944 819 l 1028 819 q 1431 563 1431 819 l 1431 -281 q 1026 -514 1431 -514 l 985 -514 q 801 -422 896 -514 q 667 -514 779 -514 q 528 -375 528 -514 q 667 -222 528 -222 q 736 -235 707 -222 l 736 0 z "},"꩷":{"ha":944,"x_min":56,"x_max":1207,"o":"m 824 33 l 1031 -357 q 1103 -422 1065 -422 q 1126 -417 1115 -422 l 1175 -390 l 1207 -451 l 1133 -490 q 1051 -514 1089 -514 q 921 -415 974 -514 l 700 1 q 667 0 685 0 l 653 0 l 653 -347 q 708 -444 653 -444 l 764 -444 l 764 -514 l 681 -514 q 528 -347 528 -514 l 528 69 q 611 160 611 69 l 611 563 q 528 653 611 653 l 417 653 q 333 563 333 653 l 333 236 q 431 69 333 167 l 431 0 l 56 0 l 56 69 l 293 69 q 56 236 56 144 l 56 563 q 278 722 56 722 l 667 722 q 889 563 889 722 l 889 160 q 824 33 889 74 m 472 1113 q 389 1024 389 1113 l 389 850 q 438 819 389 819 q 486 850 486 819 q 597 931 486 931 q 708 850 708 931 q 531 743 708 743 l 317 743 q 139 850 139 743 l 139 1024 q 472 1229 139 1229 q 806 996 806 1229 l 772 996 q 472 1113 750 1113 z "},"꩸":{"ha":1236,"x_min":56,"x_max":1292,"o":"m 56 567 l 250 615 q 347 338 347 525 q 256 65 347 156 l 64 117 q 139 338 139 189 q 56 567 139 493 m 954 32 q 971 15 963 24 l 811 -139 q 583 -56 739 -56 q 363 -131 435 -56 l 311 61 q 583 153 401 153 q 783 113 703 153 l 940 596 q 1144 722 982 722 q 1201 713 1171 722 q 1292 639 1269 690 l 1226 464 q 1179 507 1217 496 q 1151 513 1164 513 q 1076 435 1101 513 l 954 32 m 811 819 l 860 625 q 583 528 769 528 q 311 619 401 528 l 363 811 q 583 736 435 736 q 811 819 739 736 z "},"꩹":{"ha":944,"x_min":56,"x_max":917,"o":"m 333 236 q 431 69 333 167 l 431 0 l 56 0 l 56 69 l 293 69 q 56 236 56 144 l 56 563 q 278 722 56 722 l 667 722 q 889 563 889 722 l 889 160 q 667 0 889 0 l 528 0 l 528 69 q 611 160 611 69 l 611 563 q 528 653 611 653 l 417 653 q 333 563 333 653 l 333 236 m 528 -347 l 528 42 l 806 42 l 806 -347 q 861 -444 806 -444 l 917 -444 l 917 -514 l 681 -514 q 528 -347 528 -514 z "},"ꩺ":{"ha":1889,"x_min":56,"x_max":1833,"o":"m 1000 563 q 917 653 1000 653 l 806 653 q 722 563 722 653 l 722 160 q 806 69 722 69 l 806 0 l 667 0 q 444 160 444 0 l 444 563 q 667 722 444 722 l 1056 722 q 1278 563 1278 722 l 1278 160 q 1361 69 1278 69 l 1472 69 q 1556 160 1556 69 l 1556 563 q 1472 653 1556 653 l 1472 722 l 1611 722 q 1833 563 1833 722 l 1833 160 q 1611 0 1833 0 l 1278 0 l 1278 -354 q 1056 -514 1278 -514 l 278 -514 q 56 -354 56 -514 l 56 986 q 278 1146 56 1146 l 918 1146 q 1001 1236 1001 1146 l 1279 1236 q 1057 1076 1279 1076 l 417 1076 q 333 986 333 1076 l 333 -354 q 417 -444 333 -444 l 917 -444 q 1000 -354 1000 -444 l 1000 563 z "},"ꩻ":{"ha":528,"x_min":56,"x_max":472,"o":"m 271 139 q 306 69 271 69 q 340 139 340 69 q 306 208 340 208 q 271 139 271 208 m 56 139 q 278 306 56 306 q 472 139 472 306 q 328 1 472 11 q 426 -112 360 -83 l 307 -207 q 56 94 56 -149 l 56 139 z "},"◌":{"ha":826,"x_min":69,"x_max":757,"o":"m 665 581 q 632 547 665 547 q 597 581 597 547 q 632 615 597 615 q 665 581 665 615 m 564 647 q 532 614 564 614 q 497 647 497 614 q 532 682 497 682 q 564 647 564 682 m 732 481 q 697 446 732 446 q 664 481 664 446 q 699 514 664 514 q 732 481 732 514 m 757 363 q 724 329 757 329 q 689 363 689 329 q 724 396 689 396 q 757 363 757 396 m 446 672 q 413 638 446 638 q 379 672 379 638 q 413 706 379 706 q 446 672 446 706 m 329 647 q 294 614 329 614 q 261 647 261 614 q 294 682 261 682 q 329 647 329 682 m 732 244 q 697 211 732 211 q 664 244 664 211 q 697 279 664 279 q 732 244 732 279 m 229 581 q 194 547 229 547 q 161 579 161 547 q 194 615 161 615 q 229 581 229 615 m 665 143 q 632 110 665 110 q 597 143 597 110 q 632 178 597 178 q 665 143 665 178 m 564 76 q 532 44 564 44 q 497 76 497 44 q 532 111 497 111 q 564 76 564 111 m 161 481 q 129 446 161 446 q 94 481 94 446 q 128 514 94 514 q 161 481 161 514 m 138 363 q 104 329 138 329 q 69 363 69 329 q 104 396 69 396 q 138 363 138 396 m 446 54 q 413 19 446 19 q 379 54 379 19 q 413 88 379 88 q 446 54 446 88 m 161 244 q 128 211 161 211 q 94 244 94 211 q 128 279 94 279 q 161 244 161 279 m 329 79 q 294 44 329 44 q 261 76 261 44 q 294 111 261 111 q 329 79 329 111 m 229 143 q 194 110 229 110 q 161 143 161 110 q 194 178 161 178 q 229 143 229 178 z "}}}
